<?xml version="1.0" encoding="UTF-8"?>
<svg width="2424.2" height="2424.6" version="1.1" viewBox="0 0 2424.2 2424.6" xmlns="http://www.w3.org/2000/svg" xmlns:cc="http://creativecommons.org/ns#" xmlns:dc="http://purl.org/dc/elements/1.1/" xmlns:rdf="http://www.w3.org/1999/02/22-rdf-syntax-ns#" xmlns:xlink="http://www.w3.org/1999/xlink" zoomAndPan="magnify">
 <metadata>
  <rdf:RDF>
   <cc:Work rdf:about="">
    <dc:format>image/svg+xml</dc:format>
    <dc:type rdf:resource="http://purl.org/dc/dcmitype/StillImage"/>
    <dc:title/>
   </cc:Work>
  </rdf:RDF>
 </metadata>
 <defs>
  <radialGradient id="radialGradient5991-1" cx="1166.5" cy="313.88" r="29.625" gradientTransform="matrix(1.5939 1.0939 -.20319 .29605 -631.01 -1047.6)" gradientUnits="userSpaceOnUse" xlink:href="#linearGradient3127-7"/>
  <linearGradient id="linearGradient3127-7">
   <stop stop-color="#efbb33" offset="0"/>
   <stop stop-color="#efbb33" stop-opacity="0" offset="1"/>
  </linearGradient>
  <linearGradient id="linearGradient5993-9" x1="734.88" x2="736.49" y1="204.15" y2="203.91" gradientUnits="userSpaceOnUse" xlink:href="#linearGradient3127-7"/>
  <linearGradient id="linearGradient5995-2" x1="720.43" x2="720.56" y1="-37.52" y2="-56.257" gradientTransform="matrix(1 0 0 1.028 16.263 326.83)" gradientUnits="userSpaceOnUse">
   <stop stop-color="#f6d251" offset="0"/>
   <stop stop-color="#f6d251" stop-opacity="0" offset="1"/>
  </linearGradient>
 </defs>
 <g transform="matrix(5.0549 0 0 5.0546 3059.2 68.641)">
  <g>
   <g transform="matrix(1.3815 0 0 1.4516 -1549.6 -116.99)" fill="#fff" stroke="#f6d251">
    <ellipse transform="translate(1072.5 -12.308)" cx="-215.36" cy="248.74" rx="172.29" ry="163.91" fill="#fff" stroke="#f6d251" stroke-linecap="round" stroke-width="2.5"/>
   </g>
   <ellipse transform="matrix(1.0876 0 0 1.1428 -131.18 -58.036)" cx="-215.36" cy="248.74" rx="172.29" ry="163.91" fill="#284687" stroke="#f6d251" stroke-linecap="round" stroke-width="2.5"/>
   <g transform="translate(-618.48 -23.978)" fill="#f6d251">
    <g transform="translate(452.62 19.036)">
     <g transform="translate(-452.26 -19.143)">
      <g fill="#f6d251">
       <path d="m232.66 131.98 8.566 67.365 22.314-0.10575 7.6142-67.893-19.459-20.516z" fill="#f6d251"/>
      </g>
     </g>
     <g transform="matrix(1 0 0 -1 -453.01 479.54)" stroke="#2a458c" stroke-width="2.5">
      <path d="m243.63 379.91 3.4398-66.852"/>
      <path d="m261.59 379.58-3.4398-66.852"/>
     </g>
    </g>
    <g transform="matrix(1 0 0 -1 452.62 481.65)">
     <g transform="translate(-452.26 -19.143)">
      <g fill="#f6d251">
       <path d="m232.66 131.98 8.566 67.365 22.314-0.10575 7.6142-67.893-19.459-20.516z" fill="#f6d251"/>
      </g>
     </g>
     <g transform="matrix(1 0 0 -1 -453.01 479.54)" stroke="#2a458c" stroke-width="2.5">
      <path d="m243.63 379.91 3.4398-66.852"/>
      <path d="m261.59 379.58-3.4398-66.852"/>
     </g>
    </g>
    <g transform="matrix(0 1 1 0 21.99 449.62)">
     <g transform="translate(-452.26 -19.143)">
      <g fill="#f6d251">
       <path d="m232.66 131.98 8.566 67.365 22.314-0.10575 7.6142-67.893-19.459-20.516z" fill="#f6d251"/>
      </g>
     </g>
     <g transform="matrix(1 0 0 -1 -453.01 479.54)" stroke="#2a458c" stroke-width="2.5">
      <path d="m243.63 379.91 3.4398-66.852"/>
      <path d="m261.59 379.58-3.4398-66.852"/>
     </g>
    </g>
    <g transform="rotate(90 16.82 466.44)">
     <g transform="translate(-452.26 -19.143)">
      <g fill="#f6d251">
       <path d="m232.66 131.98 8.566 67.365 22.314-0.10575 7.6142-67.893-19.459-20.516z" fill="#f6d251"/>
      </g>
     </g>
     <g transform="matrix(1 0 0 -1 -453.01 479.54)" stroke="#2a458c" stroke-width="2.5">
      <path d="m243.63 379.91 3.4398-66.852"/>
      <path d="m261.59 379.58-3.4398-66.852"/>
     </g>
    </g>
    <g transform="rotate(46.256 3.9542 766.44)">
     <g transform="translate(-452.26 -19.143)">
      <g fill="#f6d251">
       <path d="m232.66 131.98 8.566 67.365 22.314-0.10575 7.6142-67.893-19.459-20.516z" fill="#f6d251"/>
      </g>
     </g>
     <g transform="matrix(1 0 0 -1 -453.01 479.54)" stroke="#2a458c" stroke-width="2.5">
      <path d="m243.63 379.91 3.4398-66.852"/>
      <path d="m261.59 379.58-3.4398-66.852"/>
     </g>
    </g>
    <g transform="matrix(-.69144 .72243 .72243 .69144 -50.849 233.64)">
     <g transform="translate(-452.26 -19.143)">
      <g fill="#f6d251">
       <path d="m232.66 131.98 8.566 67.365 22.314-0.10575 7.6142-67.893-19.459-20.516z" fill="#f6d251"/>
      </g>
     </g>
     <g transform="matrix(1 0 0 -1 -453.01 479.54)" stroke="#2a458c" stroke-width="2.5">
      <path d="m243.63 379.91 3.4398-66.852"/>
      <path d="m261.59 379.58-3.4398-66.852"/>
     </g>
    </g>
    <g transform="rotate(226.26 31.629 144.44)">
     <g transform="translate(-452.26 -19.143)">
      <g fill="#f6d251">
       <path d="m232.66 131.98 8.566 67.365 22.314-0.10575 7.6142-67.893-19.459-20.516z" fill="#f6d251"/>
      </g>
     </g>
     <g transform="matrix(1 0 0 -1 -453.01 479.54)" stroke="#2a458c" stroke-width="2.5">
      <path d="m243.63 379.91 3.4398-66.852"/>
      <path d="m261.59 379.58-3.4398-66.852"/>
     </g>
    </g>
    <g transform="matrix(.69144 -.72243 -.72243 -.69144 555.42 267.16)">
     <g transform="translate(-452.26 -19.143)">
      <g fill="#f6d251">
       <path d="m232.66 131.98 8.566 67.365 22.314-0.10575 7.6142-67.893-19.459-20.516z" fill="#f6d251"/>
      </g>
     </g>
     <g transform="matrix(1 0 0 -1 -453.01 479.54)" stroke="#2a458c" stroke-width="2.5">
      <path d="m243.63 379.91 3.4398-66.852"/>
      <path d="m261.59 379.58-3.4398-66.852"/>
     </g>
    </g>
   </g>
   <g transform="translate(-617.46 -22.854)" fill="#f6d251">
    <ellipse transform="matrix(1.1783 0 0 1.1705 -53.424 -50.18)" cx="259.31" cy="255.92" rx="54.569" ry="55.838" fill="#f6d251"/>
   </g>
   <path transform="translate(-616.51 -17.514)" d="m250.18 145.88-84.818 143.22 169.55 0.13893z" fill="#bc2b38"/>
  </g>
  <g transform="translate(-1428.6 227.83)">
   <path transform="translate(6.7175 -333.05)" d="m1059.7 284.28c-2.1497-0.0663-3.8851 0.62939-5.3438 4.7188-1.996 0.14744-4.3052-0.0761-4.7812 1.7812l-11.063 1.5c-1.3991 0.11916-1.1428 2.4903-0.1562 3.4375-0.9435 2.7695 0.308 3.1538 1.5 3.5938 5.6465-3.6552 7.1262 5.4887 1.1875 4.0312-1.8835 0.38365-1.9409 1.275-1.6563 2.25 1.4399 2.8691 3.5854 2.6003 4.8126 2.5312 0.9447-0.0695 2.2541-0.95754 3.2187-1.0312 2.1527-0.35674 2.2486 4.8028-0.75 5.2188-1.7858 0.13696-3.5852 0.26547-5.4687-0.28125-0.8072-0.32535-1.865-1.4546-1.9063-1.5312-0.043-0.0794-0.7344 0.81464-0.125 1.8125-4.3751-0.50729-7.2566 1.3565-6.7813 2.5625 1.5408-0.21035 2.5409-0.0355 2.6876 0.75-3.6517 1.3911-3.635 3.0532-4.9376 4.625h-2.8437c0.5769-1.187 0.3113-1.9856-0.9063-2.375l-4.3437-0.15625c-1.6521 0.35676-2.322 0.86955-1.7813 1.625-3.8896 1.047-1.9678 1.5707-1.8124 2.25l-0.1384 0.0688c-0.1023 0.59823-1.4408 1.2326 0.013 2.2683-0.058 0.44039-1.2289 1.5298-0.125 2.3192-1.2049 1.4959 0.3946 1.7667 1.3281 2.1094 2.1653 0.79041 3.9726-0.49805 5.9531-0.48435l-0.125 4.9375-8.625-0.4375c-0.9544-0.0306-1.9183 0.85816-2.3125 1.5-1.0219 1.4486-3.0253 0.29679-4.9375 0-4.5715 1.0884-3.8291 3.529-4.5625 5.5312 0.3286 0.24623-0.2601 0.9436 2.1875 0.5-0.4034 1.6279-0.4189 1.5329 2 1-0.1621 1.9817-0.062 1.7749 2.7812 2 0.8475-1.3673 1.6838-0.97889 2.5313-0.8125 2.893 0.0257 3.1558-1.2356 4.2813-2.0938 2.668-1.1372 4.186-0.41464 6.5-0.3125 4.6074 10.954 10.579 18.23 20.969 24 7.5153 3.905 20.383 3.053 25.156-0.25 5.5545-3.4058 8.768-6.3973 13.531-12.969 5.6479-4.2664 9.0264-10.954 10.094-18.406 4.3602-2.4161 6.1307-6.8396 5.9062-12.844 0.1096-1.3502 1.0942-3.0044 1.8125-4.5-3.8225 1.1942-6.6148 9.8664-9.5625-1.3438-2.0341 3.3738-4.1768 11.093-10.344 1.125 0.6794 2.3511 1.2472 5.2985 1.3438 6.9375 0.1839 6.1413 3.0888 8.4776 5.5625 11.375 1.5864 3.0774 0.023 3.9253-1.0625 5.0938-0.1132-4.0162-3.6668-7.3952-5.5312-8.9375-2.8029-2.0742-6.4471-3.3379-9.7813-1.9688-3.471 1.5108-6.7073 3.6574-7.5625 6.7812-1.111 4.4886-0.4014 6.9366 0.625 9.75 1.6373 3.7518 4.9607 5.6047 8.1875 6.5-15.32 8.0488-21.359-8.0229-20.25-10.844 0.4865-3.4581 3.1756-6.7501 5.3437-10.031 2.338-4.4265 1.424-7.7918 2-7.1875 0.5541 0.74869-0.7355 3.8497-0.2499 4.0312 2.24-1.2058 3.8258-3.2097 4.3749-6.4688 1.8426 1.6743 4.2935 0.92695 5.8438 0.84375-0.8973-0.0997-1.9708 0.07-2.868-1.625 1.9836 0.36748 4.3768-1.2967 5.9618-2.125-1.433 0.23607-2.263-0.24464-3-0.84375 1.7995-0.44837 3.189 0.5572 5.25-1.0625 2.4562-1.3411 3.0401-3.3448 4.0312-5.2188-1.9941 0.0752-3.9747 0.42051-5.9688-1.8125l0.4376 0.15625c2.1104-0.48563 3.5561-1.2494 3.875-2.5312-0.9223-0.36964-1.8277 0.32959-2.75-1.2812l-2.4688-3.2188c1.7261 1.7179 2.6116 2.3584 5.3125 0.21875-1.4177-1.1735-4.4241-0.44945-5.625-4.0938 3.5292 2.2014 2.9389-3.9311 4.7813-2.7812-1.1211-1.0774-3.2113-0.15062-5.9688-2.3125 1.0645-0.5733 0.5476-2.6532 1.0312-3.75-4.0376 1.0963-3.8171-0.8398-7.3124 0.3125 0.5784-1.7607 2.4357-1.9896 3.4374-2.3125-1.3222 0.0462-2.5272-1.9005-4.5624-0.25-1.2523 0.5017-2.2073-0.77579-3.2813-1.3438-0.7942-0.0877-1.5209-0.19724-2.2187-0.21875zm16.656 49.25c1.6481-0.21457 3.4629 0.69019 4.5625 2.4688 1.4661 2.3714 1.1034 5.3856-0.8125 6.7188s-4.6589 0.49642-6.125-1.875-1.1034-5.3856 0.8125-6.7188c0.479-0.3333 1.0131-0.52223 1.5625-0.59375z" fill="#f6d251"/>
   <path transform="translate(-16.263 -325.27)" d="m1091.8 287.44c-0.9739 1.6092-1.7156 3.2348-5 2.8125-1.5795 0.14305-0.9175 1.309-2.875 1.3125-1.4516 0.10282-1.4687 0.56598-1.9375 0.9375l1.9375 0.3125c-3.081 0.95139-5.2114 2.4732-7.125 4.125 2.6747-0.85501 5.0323-1.1285 7-0.6875-3.6111 1.3125-5.6133 3.1077-6.875 5.125 3.5504-0.35564 6.0635-0.27455 7.375 0.3125-4.7058-0.88427-10.468 0.7088-11.235 3.416 3.6849-0.23525 4.3047 0.10927 6.4223 0.39645-2.4495 0.0255-11.548-1.1562-18.084 2.9192-3.9777 2.931-3.1368 5.4128-2.9786 7.0808 2.4925-3.4199 5.5907-4.3296 9.8125-3.4375-3.9993 3.311-4.5067 7.4491-4.0625 11.812 1.599-2.8443 3.5805-5.627 7.3719-6.625 1.4417-2.5995 2.1661-4.1974 2.3156-3.625-1.5603 2.4737-2.6452 5.0492-2.5625 7.875 2.4199-2.1779 4.8649-4.3457 8.4375-6.0625l-0.3125 4.1875c1.7557-1.4412 3.7867-1.7202 5.0625-5.1875 0.02 1.4438-0.03 2.8876-0.3605 4.3315 2.5527-1.4008 6.0064-2.555 4.798-6.7065 1.8279 2.0506 4.0774 1.2271 5.75 0.5625-1.3649-0.589-2.961-1.0476-3.9551-2.6831-0.8178-0.36049-0.938-4.1504-1.0663-7.9002-0.2204-0.48846-1.1913-0.97807-1.7583-1.0044-0.9538-0.59938 0.054-1.3815 0.5922-1.2248 2.9584 0.1503 4.6816-0.53751 6-1.5-1.4128-0.34478-2.9245-0.39299-4.0625-1.5625l3.6875-2.5625c0.9025-0.78759 0.6188-1.931 0.375-3.0625-0.3819 0.64148-0.4251 1.2632-1.6875 1.125-0.7557-1e-4 -1.7638 0.22512-0.9375-1.1875 0.973-1.2987 0.9089-2.5031-0.062-3.625z" fill="#efbb33" opacity=".90265"/>
   <g transform="translate(-126.22 -307.24)">
    <path d="m1185.3 306.53c-1.1643 1.4244-5.8391 4.6176-7.7587 5.8981l-0.3517 0.29549zm-7.1148 5.665c-1.4252 0.65184-1.4469 0.56066-4.1976 0.96002-2.2565 3.1606-4.1142 3.2638-5.875 2.625-3.1989-0.51444-6.2446-1.7992-9.5938-1.5625 4.5909 10.793 10.546 18 20.844 23.719 7.5153 3.905 20.383 3.053 25.156-0.25 5.1343-3.1482 8.2933-5.9677 12.5-11.562l0.75-1.25c-3.3457 2.4376-3.6621 6.4708-10.674 6.6169-3.3312 0.0727-8.7309 2.2592-11.912 1.0204-2.9355-1.1404-6.4056-1.3919-8.0829-2.375-5.9725-4.3641-7.587-12.418-8.9142-17.941z" fill="url(#radialGradient5991-1)"/>
   </g>
   <g transform="translate(6.7175 -333.05)" fill="none" stroke="#e7ad46">
    <g>
     <path d="m1024.9 332.81c6.3009-0.64405 7.7907-3.4263 9.75-6" stroke-width=".6"/>
     <path d="m1025.2 339.75c3.4123-0.29052 6.5004 1.0399 9.75 1.5625 1.7609 0.63881 3.6185 0.53564 5.875-2.625 8.7189-1.2658 9.2425-4.0927 11.312-6.625" stroke-width=".6"/>
     <g stroke-width=".5">
      <path d="m1065.4 286c-3.4811 0.0238-4.8179 2.0271-6.1875 4"/>
      <path d="m1066.9 288.31c-1.602-0.25552-2.7501 0.51023-3.6875 1.75"/>
      <path d="m1072.8 292.19c-2.1465 0.0983-5.3033-2.9544-7.125 0.4375"/>
     </g>
     <path d="m1074.3 312.06c-4.3277 0.40692-0.2989-7.8101-4.0625-8.8125" stroke-width=".6"/>
    </g>
    <path d="m1068.8 318.75c-3.0152-2.081-0.2351-10.342-4-10" stroke-linecap="round" stroke-width=".6"/>
    <g>
     <path d="m1073.9 297.46c-0.7507-1.1464-3.1215-4.6098-6.3299-2.4814" stroke-width=".5"/>
     <path d="m1074.1 300.86c-0.7507-1.1464-0.7153-2.1723-3.5487-2.4501" stroke-width=".5"/>
     <path d="m1007 339.82c0.6005-1.6103 0.4138-2.2964 3.5107-3.2301" stroke-width=".35"/>
     <path d="m1009.2 340.89c0.6005-1.6103 0.4138-2.2964 3.5107-3.2301" stroke-width=".35"/>
    </g>
   </g>
   <path transform="translate(-16.263 -325.27)" d="m1110.1 311.43c4.0624 4.0667 2.2841 5.4134 2.5296 7.9359 0.1419 1.563 1.9953 1.0724 1.4375-0.65625-0.1633-2.2935-1.6569-4.0912-1.6875-7.375-0.6284 0.29464-1.3572 0.38856-2.2796 0.0953z" fill="#e7ad46" opacity=".88938"/>
   <path transform="translate(-16.263 -325.27)" d="m1120.7 310.87c-3.736 4.4436-2.1754 6.2126-2.4943 8.3274-0.1463 1.673-2.1853 1.4489-1.6104-0.4014 0.5308-2.1502 1.729-4.5998 1.7916-7.9695 0.5429 0.46591 1.2256 0.75459 2.3131 0.0351z" fill="#e7ad46" opacity=".88938"/>
   <g fill="#efb625">
    <path transform="translate(114.02 -282.58)" d="m971.11 293.88c-0.076 0-0.146 0.016-0.2177 0.0278 0.524 0.0256 0.9523 0.40521 0.9523 0.86259 0 0.47398-0.456 0.86259-1.0067 0.86259-0.3743 0-0.7001-0.18255-0.8706-0.44521 0.1426 0.42128 0.6089 0.72346 1.1427 0.72346 0.6483 0 1.1698-0.44166 1.1698-1.0017 0-0.56006-0.5215-1.0295-1.1698-1.0295z"/>
    <path transform="translate(114.02 -282.58)" d="m969 295.54c-0.0709 0.0274-0.13039 0.0676-0.193 0.10449 0.49793-0.16521 1.0344 0.0343 1.1994 0.46084 0.17103 0.44205-0.11402 0.96902-0.62762 1.1677-0.34908 0.13506-0.7188 0.0824-0.9726-0.10107 0.28501 0.34144 0.82893 0.455 1.3268 0.26238 0.60462-0.23393 0.93162-0.83401 0.72953-1.3563-0.20209-0.52233-0.85786-0.772-1.4625-0.53807z"/>
    <path transform="translate(114.02 -282.58)" d="m966.61 295.47c-0.0758-6e-3 -0.14681 4e-3 -0.21923 0.0103 0.52028 0.0674 0.91688 0.48 0.88036 0.9359-0.0379 0.47247-0.52345 0.82341-1.0724 0.77942-0.3731-0.0299-0.68329-0.23787-0.83225-0.51334 0.10849 0.43132 0.54916 0.76978 1.0813 0.81242 0.64622 0.0518 1.2013-0.34679 1.2461-0.90505 0.0447-0.55827-0.43759-1.0679-1.0838-1.1197z"/>
    <path transform="translate(114.02 -282.58)" d="m964.41 294.35c-0.073-0.0212-0.14458-0.0258-0.21677-0.0343 0.49582 0.17145 0.80056 0.65587 0.67239 1.0949-0.13288 0.45498-0.67948 0.70022-1.2081 0.54588-0.3593-0.10491-0.62089-0.37143-0.71093-0.67138 0.0188 0.44436 0.38174 0.86511 0.89415 1.0147 0.62231 0.18171 1.2467-0.0961 1.4037-0.6337 0.15693-0.53762-0.21206-1.1344-0.83437-1.3161z"/>
    <path transform="translate(114.02 -282.58)" d="m966.53 292.57c-0.073-0.0212-0.14458-0.0258-0.21677-0.0343 0.49582 0.17145 0.80056 0.65587 0.67239 1.0949-0.13288 0.45498-0.67948 0.70022-1.2081 0.54588-0.3593-0.10491-0.62089-0.37143-0.71093-0.67138 0.0188 0.44436 0.38174 0.86511 0.89415 1.0147 0.62231 0.18171 1.2467-0.0961 1.4037-0.6337 0.15693-0.53762-0.21206-1.1344-0.83437-1.3161z"/>
    <path transform="translate(114.02 -282.58)" d="m968.94 293.47c-0.073-0.0212-0.14458-0.0258-0.21677-0.0343 0.49582 0.17145 0.80056 0.65587 0.67239 1.0949-0.13288 0.45498-0.67948 0.70022-1.2081 0.54588-0.3593-0.10491-0.62089-0.37143-0.71093-0.67138 0.0188 0.44436 0.38174 0.86511 0.89415 1.0147 0.62231 0.18171 1.2467-0.0961 1.4037-0.6337 0.15693-0.53762-0.21206-1.1344-0.83437-1.3161z"/>
    <path transform="translate(114.02 -282.58)" d="m962.88 291.82c-0.073-0.0212-0.14458-0.0258-0.21677-0.0343 0.49582 0.17145 0.80056 0.65587 0.67239 1.0949-0.13288 0.45498-0.67948 0.70022-1.2081 0.54588-0.3593-0.10491-0.62089-0.37143-0.71093-0.67138 0.0188 0.44436 0.38174 0.86511 0.89415 1.0147 0.62231 0.18171 1.2467-0.0961 1.4037-0.6337 0.15693-0.53762-0.21206-1.1344-0.83437-1.3161z"/>
    <path transform="translate(114.02 -282.58)" d="m965.27 290.41c-0.0662-0.0206-0.13103-0.025-0.19646-0.0333 0.44935 0.1662 0.72553 0.63577 0.60937 1.0614-0.12042 0.44104-0.61579 0.67876-1.0949 0.52915-0.32563-0.10169-0.5627-0.36005-0.6443-0.6508 0.017 0.43074 0.34596 0.8386 0.81034 0.98362 0.56399 0.17614 1.1298-0.0932 1.2721-0.61428 0.14222-0.52115-0.19218-1.0997-0.75616-1.2758z"/>
    <path transform="translate(114.02 -282.58)" d="m960.44 290.44c-0.073-0.0212-0.14458-0.0258-0.21677-0.0343 0.49582 0.17145 0.80056 0.65587 0.67239 1.0949-0.13288 0.45498-0.67948 0.70022-1.2081 0.54588-0.3593-0.10491-0.62089-0.37143-0.71093-0.67138 0.0188 0.44436 0.38174 0.86511 0.89415 1.0147 0.62231 0.18171 1.2467-0.0961 1.4037-0.6337 0.15693-0.53762-0.21206-1.1344-0.83437-1.3161z"/>
    <path transform="translate(114.02 -282.58)" d="m962.46 289.06c-0.0662-0.0206-0.13103-0.025-0.19646-0.0333 0.44935 0.1662 0.72553 0.63577 0.60937 1.0614-0.12042 0.44104-0.61579 0.67876-1.0949 0.52915-0.32563-0.10169-0.5627-0.36005-0.6443-0.6508 0.017 0.43074 0.34596 0.8386 0.81034 0.98362 0.56399 0.17614 1.1298-0.0932 1.2721-0.61428 0.14222-0.52115-0.19218-1.0997-0.75616-1.2758z"/>
    <path transform="translate(114.02 -282.58)" d="m964.72 287.58c-0.051-0.047-0.10769-0.0787-0.16326-0.11425 0.33484 0.34266 0.38325 0.88528 0.096 1.2201-0.29774 0.34695-0.84719 0.34955-1.216 9e-3 -0.25068-0.23138-0.35422-0.56639-0.30341-0.86406-0.16915 0.3965-0.0466 0.90596 0.31088 1.2359 0.43417 0.40076 1.0608 0.39977 1.4126-0.0101 0.35175-0.40999 0.29741-1.076-0.13676-1.4767z"/>
    <path transform="translate(114.02 -282.58)" d="m960.22 287.46c-0.051-0.047-0.10769-0.0787-0.16326-0.11425 0.33484 0.34266 0.38325 0.88528 0.096 1.2201-0.29774 0.34695-0.84719 0.34955-1.216 9e-3 -0.25068-0.23138-0.35422-0.56639-0.30341-0.86406-0.16915 0.3965-0.0466 0.90596 0.31088 1.2359 0.43417 0.40076 1.0608 0.39977 1.4126-0.0101 0.35175-0.40999 0.29741-1.076-0.13676-1.4767z"/>
    <path transform="translate(114.02 -282.58)" d="m962.84 286.24c-0.051-0.047-0.10769-0.0787-0.16326-0.11425 0.33484 0.34266 0.38325 0.88528 0.096 1.2201-0.29774 0.34695-0.84719 0.34955-1.216 9e-3 -0.25068-0.23138-0.35422-0.56639-0.30341-0.86406-0.16915 0.3965-0.0466 0.90596 0.31088 1.2359 0.43417 0.40076 1.0608 0.39977 1.4126-0.0101 0.35175-0.40999 0.29741-1.076-0.13676-1.4767z"/>
    <path transform="translate(114.02 -282.58)" d="m965.4 285.24c-0.051-0.047-0.10769-0.0787-0.16326-0.11425 0.33484 0.34266 0.38325 0.88528 0.096 1.2201-0.29774 0.34695-0.84719 0.34955-1.216 9e-3 -0.25068-0.23138-0.35422-0.56639-0.30341-0.86406-0.16915 0.3965-0.0466 0.90596 0.31088 1.2359 0.43417 0.40076 1.0608 0.39977 1.4126-0.0101 0.35175-0.40999 0.29741-1.076-0.13676-1.4767z"/>
    <path transform="translate(114.02 -282.58)" d="m960.93 285.03c-0.0241-0.065-0.0603-0.11899-0.0937-0.17587 0.14302 0.45725-0.0599 0.96281-0.46779 1.1309-0.42271 0.17417-0.91358-0.0727-1.0878-0.54349-0.11847-0.31991-0.0588-0.66544 0.12148-0.90769-0.33058 0.27666-0.45242 0.78629-0.28347 1.2425 0.20519 0.55409 0.76415 0.83743 1.2636 0.63168 0.49944-0.20587 0.75307-0.82409 0.54787-1.3782z"/>
    <path transform="translate(114.02 -282.58)" d="m964.05 284.33c0.01-0.0686 4e-3 -0.13335 1e-3 -0.19927-0.0918 0.47022-0.51085 0.81831-0.94959 0.77206-0.45467-0.048-0.76892-0.49868-0.69815-0.99567 0.048-0.33774 0.26494-0.61325 0.53878-0.74052-0.42241 0.086-0.77208 0.47626-0.84058 0.9579-0.0832 0.58497 0.27359 1.1002 0.81073 1.1568 0.53723 0.0566 1.0545-0.36644 1.1377-0.9514z"/>
    <path transform="translate(114.02 -282.58)" d="m961.92 282.77c0.01-0.0686 4e-3 -0.13335 1e-3 -0.19927-0.0918 0.47022-0.51085 0.81831-0.94959 0.77206-0.45467-0.048-0.76892-0.49868-0.69815-0.99567 0.048-0.33774 0.26494-0.61325 0.53878-0.74052-0.42241 0.086-0.77208 0.47626-0.84058 0.9579-0.0832 0.58497 0.27359 1.1002 0.81073 1.1568 0.53723 0.0566 1.0545-0.36644 1.1377-0.9514z"/>
    <path transform="translate(114.02 -282.58)" d="m963.74 280.61c0.01-0.0686 4e-3 -0.13335 1e-3 -0.19927-0.0918 0.47022-0.51085 0.81831-0.94959 0.77206-0.45467-0.048-0.76892-0.49868-0.69815-0.99567 0.048-0.33774 0.26494-0.61325 0.53878-0.74052-0.42241 0.086-0.77208 0.47626-0.84058 0.9579-0.0832 0.58497 0.27359 1.1002 0.81073 1.1568 0.53723 0.0566 1.0545-0.36644 1.1377-0.9514z"/>
    <path transform="translate(114.02 -282.58)" d="m965.42 282.11c0.01-0.0686 4e-3 -0.13335 1e-3 -0.19927-0.0918 0.47022-0.51085 0.81831-0.94959 0.77206-0.45467-0.048-0.76892-0.49868-0.69815-0.99567 0.048-0.33774 0.26494-0.61325 0.53878-0.74052-0.42241 0.086-0.77208 0.47626-0.84058 0.9579-0.0832 0.58497 0.27359 1.1002 0.81073 1.1568 0.53723 0.0566 1.0545-0.36644 1.1377-0.9514z"/>
    <path transform="translate(114.02 -282.58)" d="m967.05 283.7c0.01-0.0686 4e-3 -0.13335 1e-3 -0.19927-0.0918 0.47022-0.51085 0.81831-0.94959 0.77206-0.45467-0.048-0.76892-0.49868-0.69815-0.99567 0.048-0.33774 0.26494-0.61325 0.53878-0.74052-0.42241 0.086-0.77208 0.47626-0.84058 0.9579-0.0832 0.58497 0.27359 1.1002 0.81073 1.1568 0.53723 0.0566 1.0545-0.36644 1.1377-0.9514z"/>
    <path transform="translate(114.02 -282.58)" d="m966.7 279.36c0.0377-0.0582 0.0593-0.11953 0.0841-0.18069-0.2796 0.38905-0.80567 0.53057-1.1851 0.3055-0.39318-0.23331-0.49076-0.77399-0.2191-1.1961 0.18453-0.28692 0.49663-0.44681 0.79859-0.44823-0.41977-0.0981-0.90037 0.11073-1.1636 0.51988-0.31966 0.49692-0.21034 1.114 0.25418 1.3896 0.46463 0.27557 1.1112 0.1069 1.4308-0.39002z"/>
    <path transform="translate(114.02 -282.58)" d="m968.82 281.86c0.0377-0.0582 0.0593-0.11953 0.0841-0.18069-0.2796 0.38905-0.80567 0.53057-1.1851 0.3055-0.39318-0.23331-0.49076-0.77399-0.2191-1.1961 0.18453-0.28692 0.49663-0.44681 0.79859-0.44823-0.41977-0.0981-0.90037 0.11073-1.1636 0.51988-0.31966 0.49692-0.21034 1.114 0.25418 1.3896 0.46463 0.27557 1.1112 0.1069 1.4308-0.39002z"/>
    <path transform="translate(114.02 -282.58)" d="m969.66 279.31c0.0566-0.0401 0.0994-0.0891 0.14505-0.13669-0.40382 0.25781-0.94489 0.1944-1.214-0.15522-0.27879-0.36235-0.16915-0.90071 0.23955-1.1922 0.27769-0.19815 0.62681-0.23106 0.90782-0.12053-0.35358-0.24661-0.87734-0.23066-1.2734 0.0519-0.48098 0.34316-0.60801 0.95682-0.27862 1.3849 0.3295 0.42807 0.99256 0.51091 1.4735 0.16773z"/>
    <path transform="translate(114.02 -282.58)" d="m971.1 281.69c0.0663-0.0205 0.12223-0.0537 0.18044-0.0847-0.46407 0.11904-0.95839-0.10992-1.105-0.52601-0.15191-0.43121 0.12014-0.90855 0.59935-1.0581 0.32563-0.10168 0.66761-0.0241 0.90014 0.16855-0.25905-0.34456-0.76167-0.49272-1.2261-0.34774-0.564 0.17608-0.87605 0.71953-0.69656 1.229 0.1796 0.50947 0.78377 0.79493 1.3478 0.61883z"/>
    <path transform="translate(114.02 -282.58)" d="m973.16 279.91c0.0663-0.0205 0.12223-0.0537 0.18044-0.0847-0.46407 0.11904-0.95839-0.10992-1.105-0.52601-0.15191-0.43121 0.12014-0.90855 0.59935-1.0581 0.32563-0.10168 0.66761-0.0241 0.90014 0.16855-0.25905-0.34456-0.76167-0.49272-1.2261-0.34774-0.564 0.17608-0.87605 0.71953-0.69656 1.229 0.1796 0.50947 0.78377 0.79493 1.3478 0.61883z"/>
    <path transform="translate(114.02 -282.58)" d="m973.94 282.46c0.0692 6e-3 0.13344-4e-3 0.199-0.0115-0.47503-0.0622-0.84864-0.45869-0.82991-0.89947 0.0195-0.45677 0.44964-0.79858 0.95007-0.75903 0.34008 0.0268 0.62863 0.22609 0.77276 0.49143-0.11221-0.41621-0.52359-0.74078-1.0086-0.77904-0.58902-0.0465-1.0809 0.34182-1.1039 0.88147-0.0229 0.53971 0.43163 1.0295 1.0207 1.076z"/>
    <path transform="translate(114.02 -282.58)" d="m976.16 283.96c0.0692 6e-3 0.13344-4e-3 0.199-0.0115-0.47503-0.0622-0.84864-0.45869-0.82991-0.89947 0.0195-0.45677 0.44964-0.79858 0.95007-0.75903 0.34008 0.0268 0.62863 0.22609 0.77276 0.49143-0.11221-0.41621-0.52359-0.74078-1.0086-0.77904-0.58902-0.0465-1.0809 0.34182-1.1039 0.88147-0.0229 0.53971 0.43163 1.0295 1.0207 1.076z"/>
    <path transform="translate(114.02 -282.58)" d="m976.9 286.09c0.0378 0.0583 0.0851 0.10284 0.13132 0.14997-0.24273-0.41305-0.15938-0.95142 0.19994-1.2074 0.3724-0.2652 0.90635-0.13576 1.1826 0.28341 0.18777 0.28482 0.20777 0.63493 0.0869 0.91165 0.25949-0.34421 0.26289-0.86821-5e-3 -1.2744-0.32514-0.49335-0.93372-0.64294-1.3737-0.32957-0.43994 0.31347-0.54722 0.97301-0.22203 1.4663z"/>
    <path transform="translate(114.02 -282.58)" d="m977 288.81c0.0378 0.0583 0.0851 0.10284 0.13132 0.14997-0.24273-0.41305-0.15938-0.95142 0.19994-1.2074 0.3724-0.2652 0.90635-0.13576 1.1826 0.28341 0.18777 0.28482 0.20777 0.63493 0.0869 0.91165 0.25949-0.34421 0.26289-0.86821-5e-3 -1.2744-0.32514-0.49335-0.93372-0.64294-1.3737-0.32957-0.43994 0.31347-0.54722 0.97301-0.22203 1.4663z"/>
    <path transform="translate(114.02 -282.58)" d="m971.18 297.35c-0.039 0.0377-0.066 0.0804-0.0952 0.12285 0.2799-0.24731 0.70429-0.26378 0.95374-0.027 0.25845 0.24544 0.23899 0.67331-0.0406 0.94715-0.18996 0.18615-0.45489 0.25364-0.68467 0.20235 0.30208 0.14726 0.70356 0.0718 0.97444-0.1939 0.32904-0.32234 0.35279-0.81033 0.0474-1.1003-0.30545-0.28992-0.82614-0.2737-1.1552 0.0487z"/>
    <path transform="translate(114.02 -282.58)" d="m973.33 296.85c-0.039 0.0377-0.066 0.0804-0.0952 0.12285 0.2799-0.24731 0.70429-0.26378 0.95374-0.027 0.25845 0.24544 0.23899 0.67331-0.0406 0.94715-0.18996 0.18615-0.45489 0.25364-0.68467 0.20235 0.30208 0.14726 0.70356 0.0718 0.97444-0.1939 0.32904-0.32234 0.35279-0.81033 0.0474-1.1003-0.30545-0.28992-0.82614-0.2737-1.1552 0.0487z"/>
    <path transform="translate(114.02 -282.58)" d="m972.62 294.81c-0.039 0.0377-0.066 0.0804-0.0952 0.12285 0.2799-0.24731 0.70429-0.26378 0.95374-0.027 0.25845 0.24544 0.23899 0.67331-0.0406 0.94715-0.18996 0.18615-0.45489 0.25364-0.68467 0.20235 0.30208 0.14726 0.70356 0.0718 0.97444-0.1939 0.32904-0.32234 0.35279-0.81033 0.0474-1.1003-0.30545-0.28992-0.82614-0.2737-1.1552 0.0487z"/>
    <path transform="translate(114.02 -282.58)" d="m973.69 293.32c-0.0176 0.0513-0.0222 0.10161-0.029 0.1527 0.13694-0.3475 0.50748-0.55504 0.83729-0.45748 0.34176 0.10117 0.51888 0.49115 0.39427 0.86214-0.0846 0.25214-0.28993 0.43266-0.51792 0.4914 0.33601-6e-3 0.65934-0.25578 0.77988-0.61556 0.14661-0.43667-0.054-0.88215-0.4578-1.0016-0.40384-0.11944-0.86028 0.13164-1.0068 0.56834z"/>
    <path transform="translate(114.02 -282.58)" d="m975.01 294.91c-0.0176 0.0513-0.0222 0.10161-0.029 0.1527 0.13694-0.3475 0.50748-0.55504 0.83729-0.45748 0.34176 0.10117 0.51888 0.49115 0.39427 0.86214-0.0846 0.25214-0.28993 0.43266-0.51792 0.4914 0.33601-6e-3 0.65934-0.25578 0.77988-0.61556 0.14661-0.43667-0.054-0.88215-0.4578-1.0016-0.40384-0.11944-0.86028 0.13164-1.0068 0.56834z"/>
    <path transform="translate(114.02 -282.58)" d="m975.63 296.79c-0.0176 0.0513-0.0222 0.10161-0.029 0.1527 0.13694-0.3475 0.50748-0.55504 0.83729-0.45748 0.34176 0.10117 0.51888 0.49115 0.39427 0.86214-0.0846 0.25214-0.28993 0.43266-0.51792 0.4914 0.33601-6e-3 0.65934-0.25578 0.77988-0.61556 0.14661-0.43667-0.054-0.88215-0.4578-1.0016-0.40384-0.11944-0.86028 0.13164-1.0068 0.56834z"/>
    <path transform="translate(114.02 -282.58)" d="m977.47 295.44c-0.0176 0.0513-0.0222 0.10161-0.029 0.1527 0.13694-0.3475 0.50748-0.55504 0.83729-0.45748 0.34176 0.10117 0.51888 0.49115 0.39427 0.86214-0.0846 0.25214-0.28993 0.43266-0.51792 0.4914 0.33601-6e-3 0.65934-0.25578 0.77988-0.61556 0.14661-0.43667-0.054-0.88215-0.4578-1.0016-0.40384-0.11944-0.86028 0.13164-1.0068 0.56834z"/>
    <path transform="translate(114.02 -282.58)" d="m976.63 293.76c-0.0176 0.0513-0.0222 0.10161-0.029 0.1527 0.13694-0.3475 0.50748-0.55504 0.83729-0.45748 0.34176 0.10117 0.51888 0.49115 0.39427 0.86214-0.0846 0.25214-0.28993 0.43266-0.51792 0.4914 0.33601-6e-3 0.65934-0.25578 0.77988-0.61556 0.14661-0.43667-0.054-0.88215-0.4578-1.0016-0.40384-0.11944-0.86028 0.13164-1.0068 0.56834z"/>
    <path transform="translate(114.02 -282.58)" d="m975.47 291.88c-0.0176 0.0513-0.0222 0.10161-0.029 0.1527 0.13694-0.3475 0.50748-0.55504 0.83729-0.45748 0.34176 0.10117 0.51888 0.49115 0.39427 0.86214-0.0846 0.25214-0.28993 0.43266-0.51792 0.4914 0.33601-6e-3 0.65934-0.25578 0.77988-0.61556 0.14661-0.43667-0.054-0.88215-0.4578-1.0016-0.40384-0.11944-0.86028 0.13164-1.0068 0.56834z"/>
    <path transform="translate(114.02 -282.58)" d="m977.25 290.75c-0.0155 0.0451-0.0195 0.0893-0.0255 0.13412 0.12028-0.30523 0.44575-0.48752 0.73544-0.40183 0.30019 0.0889 0.45576 0.43141 0.34631 0.75727-0.0743 0.22147-0.25466 0.38003-0.45492 0.43162 0.29514-5e-3 0.57914-0.22466 0.68501-0.54068 0.12878-0.38355-0.0474-0.77484-0.40211-0.87979-0.35471-0.10491-0.75563 0.11563-0.88436 0.49921z"/>
    <path transform="translate(114.02 -282.58)" d="m978.22 292.22c-0.0155 0.0451-0.0195 0.0893-0.0255 0.13412 0.12028-0.30523 0.44575-0.48752 0.73544-0.40183 0.30019 0.0889 0.45576 0.43141 0.34631 0.75727-0.0743 0.22147-0.25466 0.38003-0.45492 0.43162 0.29514-5e-3 0.57914-0.22466 0.68501-0.54068 0.12878-0.38355-0.0474-0.77484-0.40211-0.87979-0.35471-0.10491-0.75563 0.11563-0.88436 0.49921z"/>
    <path transform="translate(114.02 -282.58)" d="m979.35 294.06c-0.0155 0.0451-0.0195 0.0893-0.0255 0.13412 0.12028-0.30523 0.44575-0.48752 0.73544-0.40183 0.30019 0.0889 0.45576 0.43141 0.34631 0.75727-0.0743 0.22147-0.25466 0.38003-0.45492 0.43162 0.29514-5e-3 0.57914-0.22466 0.68501-0.54068 0.12878-0.38355-0.0474-0.77484-0.40211-0.87979-0.35471-0.10491-0.75563 0.11563-0.88436 0.49921z"/>
    <path transform="translate(114.02 -282.58)" d="m979.31 289.59c-0.0148 0.0393-0.0186 0.0777-0.0243 0.11674 0.11473-0.26567 0.42517-0.42433 0.70149-0.34975 0.28633 0.0774 0.43472 0.37549 0.33032 0.65912-0.0709 0.19276-0.2429 0.33077-0.43392 0.37567 0.28152-4e-3 0.55241-0.19554 0.65339-0.4706 0.12284-0.33383-0.0452-0.6744-0.38355-0.76575-0.33833-0.0913-0.72074 0.10064-0.84353 0.4345z"/>
    <path transform="translate(114.02 -282.58)" d="m979.91 291.25c-0.0148 0.0393-0.0186 0.0777-0.0243 0.11674 0.11473-0.26567 0.42517-0.42433 0.70149-0.34975 0.28633 0.0774 0.43472 0.37549 0.33032 0.65912-0.0709 0.19276-0.2429 0.33077-0.43392 0.37567 0.28152-4e-3 0.55241-0.19554 0.65339-0.4706 0.12284-0.33383-0.0452-0.6744-0.38355-0.76575-0.33833-0.0913-0.72074 0.10064-0.84353 0.4345z"/>
    <path transform="translate(114.02 -282.58)" d="m980.81 292.56c-0.0148 0.0393-0.0186 0.0777-0.0243 0.11674 0.11473-0.26567 0.42517-0.42433 0.70149-0.34975 0.28633 0.0774 0.43472 0.37549 0.33032 0.65912-0.0709 0.19276-0.2429 0.33077-0.43392 0.37567 0.28152-4e-3 0.55241-0.19554 0.65339-0.4706 0.12284-0.33383-0.0452-0.6744-0.38355-0.76575-0.33833-0.0913-0.72074 0.10064-0.84353 0.4345z"/>
    <path transform="translate(114.02 -282.58)" d="m982.2 291.48c-0.0148 0.0393-0.0186 0.0777-0.0243 0.11674 0.11473-0.26567 0.42517-0.42433 0.70149-0.34975 0.28633 0.0774 0.43472 0.37549 0.33032 0.65912-0.0709 0.19276-0.2429 0.33077-0.43392 0.37567 0.28152-4e-3 0.55241-0.19554 0.65339-0.4706 0.12284-0.33383-0.0452-0.6744-0.38355-0.76575-0.33833-0.0913-0.72074 0.10064-0.84353 0.4345z"/>
    <path transform="translate(114.02 -282.58)" d="m981.68 289.83c-0.0148 0.0393-0.0186 0.0777-0.0243 0.11674 0.11473-0.26567 0.42517-0.42433 0.70149-0.34975 0.28633 0.0774 0.43472 0.37549 0.33032 0.65912-0.0709 0.19276-0.2429 0.33077-0.43392 0.37567 0.28152-4e-3 0.55241-0.19554 0.65339-0.4706 0.12284-0.33383-0.0452-0.6744-0.38355-0.76575-0.33833-0.0913-0.72074 0.10064-0.84353 0.4345z"/>
    <path transform="translate(114.02 -282.58)" d="m980.63 288.25c-0.0148 0.0393-0.0186 0.0777-0.0243 0.11674 0.11473-0.26567 0.42517-0.42433 0.70149-0.34975 0.28633 0.0774 0.43472 0.37549 0.33032 0.65912-0.0709 0.19276-0.2429 0.33077-0.43392 0.37567 0.28152-4e-3 0.55241-0.19554 0.65339-0.4706 0.12284-0.33383-0.0452-0.6744-0.38355-0.76575-0.33833-0.0913-0.72074 0.10064-0.84353 0.4345z"/>
    <path transform="translate(114.02 -282.58)" d="m982.24 286.76c-0.0148 0.0393-0.0186 0.0777-0.0243 0.11674 0.11473-0.26567 0.42517-0.42433 0.70149-0.34975 0.28633 0.0774 0.43472 0.37549 0.33032 0.65912-0.0709 0.19276-0.2429 0.33077-0.43392 0.37567 0.28152-4e-3 0.55241-0.19554 0.65339-0.4706 0.12284-0.33383-0.0452-0.6744-0.38355-0.76575-0.33833-0.0913-0.72074 0.10064-0.84353 0.4345z"/>
    <path transform="translate(114.02 -282.58)" d="m983.43 289.35c-0.0148 0.0393-0.0186 0.0777-0.0243 0.11674 0.11473-0.26567 0.42517-0.42433 0.70149-0.34975 0.28633 0.0774 0.43472 0.37549 0.33032 0.65912-0.0709 0.19276-0.2429 0.33077-0.43392 0.37567 0.28152-4e-3 0.55241-0.19554 0.65339-0.4706 0.12284-0.33383-0.0452-0.6744-0.38355-0.76575-0.33833-0.0913-0.72074 0.10064-0.84353 0.4345z"/>
    <path transform="translate(114.02 -282.58)" d="m982.9 287.98c-0.0148 0.0393-0.0186 0.0777-0.0243 0.11674 0.11473-0.26567 0.42517-0.42433 0.70149-0.34975 0.28633 0.0774 0.43472 0.37549 0.33032 0.65912-0.0709 0.19276-0.2429 0.33077-0.43392 0.37567 0.28152-4e-3 0.55241-0.19554 0.65339-0.4706 0.12284-0.33383-0.0452-0.6744-0.38355-0.76575-0.33833-0.0913-0.72074 0.10064-0.84353 0.4345z"/>
    <path transform="translate(114.02 -282.58)" d="m984.36 287.7c3e-3 0.0334 0.0133 0.0624 0.0225 0.0925-8e-3 -0.231 0.16106-0.45198 0.38597-0.49302 0.2331-0.0424 0.44243 0.12166 0.46446 0.36208 0.015 0.16337-0.0617 0.32195-0.18407 0.41989 0.20169-0.0995 0.33136-0.33062 0.3098-0.56369-0.026-0.28295-0.26404-0.47094-0.53945-0.42072-0.27538 0.0503-0.48535 0.31994-0.45934 0.6029z"/>
    <path transform="translate(114.02 -282.58)" d="m983.14 285.61c3e-3 0.0334 0.0133 0.0624 0.0225 0.0925-8e-3 -0.231 0.16106-0.45198 0.38597-0.49302 0.2331-0.0424 0.44243 0.12166 0.46446 0.36208 0.015 0.16337-0.0617 0.32195-0.18407 0.41989 0.20169-0.0995 0.33136-0.33062 0.3098-0.56369-0.026-0.28295-0.26404-0.47094-0.53945-0.42072-0.27538 0.0503-0.48535 0.31994-0.45934 0.6029z"/>
    <path transform="translate(114.02 -282.58)" d="m984.32 285.51c3e-3 0.0334 0.0133 0.0624 0.0225 0.0925-8e-3 -0.231 0.16106-0.45198 0.38597-0.49302 0.2331-0.0424 0.44243 0.12166 0.46446 0.36208 0.015 0.16337-0.0617 0.32195-0.18407 0.41989 0.20169-0.0995 0.33136-0.33062 0.3098-0.56369-0.026-0.28295-0.26404-0.47094-0.53945-0.42072-0.27538 0.0503-0.48535 0.31994-0.45934 0.6029z"/>
    <path transform="translate(114.02 -282.58)" d="m985.04 286.2c3e-3 0.0334 0.0133 0.0624 0.0225 0.0925-8e-3 -0.231 0.16106-0.45198 0.38597-0.49302 0.2331-0.0424 0.44243 0.12166 0.46446 0.36208 0.015 0.16337-0.0617 0.32195-0.18407 0.41989 0.20169-0.0995 0.33136-0.33062 0.3098-0.56369-0.026-0.28295-0.26404-0.47094-0.53945-0.42072-0.27538 0.0503-0.48535 0.31994-0.45934 0.6029z"/>
    <path transform="translate(114.02 -282.58)" d="m983.36 283.92c3e-3 0.0334 0.0133 0.0624 0.0225 0.0925-8e-3 -0.231 0.16106-0.45198 0.38597-0.49302 0.2331-0.0424 0.44243 0.12166 0.46446 0.36208 0.015 0.16337-0.0617 0.32195-0.18407 0.41989 0.20169-0.0995 0.33136-0.33062 0.3098-0.56369-0.026-0.28295-0.26404-0.47094-0.53945-0.42072-0.27538 0.0503-0.48535 0.31994-0.45934 0.6029z"/>
    <path transform="translate(114.02 -282.58)" d="m984.66 284.27c0.0121 0.0313 0.0299 0.0563 0.0471 0.0828-0.0712-0.21989 0.0306-0.47885 0.2355-0.58016 0.21245-0.10487 0.45883-5e-3 0.54613 0.22038 0.0593 0.15294 0.0292 0.3265-0.0615 0.45432 0.16654-0.15113 0.22765-0.409 0.14282-0.62715-0.10281-0.26489-0.38338-0.38017-0.63435-0.25614-0.25093 0.1241-0.37865 0.44109-0.27582 0.70598z"/>
    <path transform="translate(114.02 -282.58)" d="m984.25 282.64c0.0121 0.0313 0.0299 0.0563 0.0471 0.0828-0.0712-0.21989 0.0306-0.47885 0.2355-0.58016 0.21245-0.10487 0.45883-5e-3 0.54613 0.22038 0.0593 0.15294 0.0292 0.3265-0.0615 0.45432 0.16654-0.15113 0.22765-0.409 0.14282-0.62715-0.10281-0.26489-0.38338-0.38017-0.63435-0.25614-0.25093 0.1241-0.37865 0.44109-0.27582 0.70598z"/>
   </g>
   <g fill="#efbb33">
    <path transform="rotate(4.0694 3548.7 4597.4)" d="m751.86 210.19c2.319 0.84756 2.7271 4.3231-1.02 4.3354 2.4624-0.97779 2.1086-3.1433 1.02-4.3354z"/>
    <path transform="rotate(4.0694 3548.7 4597.4)" d="m753.86 207.2c2.4462-0.34487 4.4486 2.9531 1.149 4.9056 1.7101-2.2622 0.3746-4.2655-1.149-4.9056z"/>
    <path transform="rotate(4.0694 3548.7 4597.4)" d="m756.57 213.14c2.4462-0.34487 4.4486 2.9531 1.149 4.9056 1.7101-2.2622 0.3746-4.2655-1.149-4.9056z" opacity=".58407"/>
    <path transform="rotate(4.0694 3548.7 4597.4)" d="m747.5 205.37c2.2222 1.079 2.0433 4.9331-1.7843 4.7118 2.6815-0.92275 2.6913-3.3304 1.7843-4.7118z"/>
    <path transform="rotate(4.0694 3548.7 4597.4)" d="m746.05 209.85c2.2222 1.079 2.0433 4.9331-1.7843 4.7118 2.6815-0.92275 2.6913-3.3304 1.7843-4.7118z"/>
   </g>
   <g>
    <path transform="rotate(4.0694 3548.7 4597.4)" d="m736.12 197.99c0.53885 2.4109-2.5889 4.6699-4.7983 1.5366 2.3914 1.5242 4.2818 0.0332 4.7983-1.5366z" fill="url(#linearGradient5993-9)"/>
    <path transform="rotate(4.0694 3548.7 4597.4)" d="m738.12 201.8c0.53885 2.4109-2.5889 4.6699-4.7983 1.5366 2.3914 1.5242 4.2818 0.0332 4.7983-1.5366z" fill="#efbb33" opacity=".69912"/>
    <path transform="rotate(4.0694 3548.7 4597.4)" d="m744.48 203.29c1.0932 1.8862-0.71163 4.7185-3.3077 2.7094 2.2882 0.59145 3.344-1.2269 3.3077-2.7094z" fill="#efbb33"/>
   </g>
   <g transform="rotate(2.5823 7383.3 2609.2)">
    <g transform="matrix(1.0534 -.21006 .19557 .98069 -247.39 188.64)">
     <path d="m1059.3 337.46c-0.8279 0.1449-1.264 0.95002-1.264 1.7978 0 1.037 0.8174 1.8584 1.7442 1.8584s1.8162-0.88214 1.8162-1.9192c0-0.72593-0.3709-1.4156-0.9649-1.6065 0.3504 0.26486 0.4386 0.7045 0.4386 1.2132 0 0.81397-0.5341 1.3362-1.2616 1.3362s-1.2223-0.5222-1.2223-1.3362c0-0.61048 0.241-1.12 0.7138-1.3438z" fill="#ffff97"/>
     <path d="m1059.2 337.46c-0.8726 0.26938-1.5013 1.0778-1.5013 2.0568 0 1.1975 0.9364 2.165 2.1089 2.165 1.1726 0 2.1089-0.96756 2.1089-2.165 0-0.83822-0.4621-1.5516-1.1438-1.9124 0.4433 0.30582 0.7506 0.81984 0.7506 1.4073 0 0.93987-0.7596 1.6959-1.6799 1.6959-0.9204 0-1.6443-0.75606-1.6443-1.6959 0-0.70491 0.4028-1.2932 1.0009-1.5516z" fill="#efbb33"/>
    </g>
    <g transform="matrix(1.0534 -.21006 .19557 .98069 -242.39 187.29)">
     <path d="m1059.3 337.46c-0.8279 0.1449-1.264 0.95002-1.264 1.7978 0 1.037 0.8174 1.8584 1.7442 1.8584s1.8162-0.88214 1.8162-1.9192c0-0.72593-0.3709-1.4156-0.9649-1.6065 0.3504 0.26486 0.4386 0.7045 0.4386 1.2132 0 0.81397-0.5341 1.3362-1.2616 1.3362s-1.2223-0.5222-1.2223-1.3362c0-0.61048 0.241-1.12 0.7138-1.3438z" fill="#ffff97"/>
     <path d="m1059.2 337.46c-0.8726 0.26938-1.5013 1.0778-1.5013 2.0568 0 1.1975 0.9364 2.165 2.1089 2.165 1.1726 0 2.1089-0.96756 2.1089-2.165 0-0.83822-0.4621-1.5516-1.1438-1.9124 0.4433 0.30582 0.7506 0.81984 0.7506 1.4073 0 0.93987-0.7596 1.6959-1.6799 1.6959-0.9204 0-1.6443-0.75606-1.6443-1.6959 0-0.70491 0.4028-1.2932 1.0009-1.5516z" fill="#efbb33"/>
    </g>
    <g transform="matrix(.95782 -.48606 .45253 .89175 -223.74 507.81)">
     <path d="m1059.3 337.46c-0.8279 0.1449-1.264 0.95002-1.264 1.7978 0 1.037 0.8174 1.8584 1.7442 1.8584s1.8162-0.88214 1.8162-1.9192c0-0.72593-0.3709-1.4156-0.9649-1.6065 0.3504 0.26486 0.4386 0.7045 0.4386 1.2132 0 0.81397-0.5341 1.3362-1.2616 1.3362s-1.2223-0.5222-1.2223-1.3362c0-0.61048 0.241-1.12 0.7138-1.3438z" fill="#ffff97"/>
     <path d="m1059.2 337.46c-0.8726 0.26938-1.5013 1.0778-1.5013 2.0568 0 1.1975 0.9364 2.165 2.1089 2.165 1.1726 0 2.1089-0.96756 2.1089-2.165 0-0.83822-0.4621-1.5516-1.1438-1.9124 0.4433 0.30582 0.7506 0.81984 0.7506 1.4073 0 0.93987-0.7596 1.6959-1.6799 1.6959-0.9204 0-1.6443-0.75606-1.6443-1.6959 0-0.70491 0.4028-1.2932 1.0009-1.5516z" fill="#efbb33"/>
    </g>
    <g transform="matrix(1.0601 -.1731 .16116 .98693 -231.81 149.04)">
     <path d="m1059.3 337.46c-0.8279 0.1449-1.264 0.95002-1.264 1.7978 0 1.037 0.8174 1.8584 1.7442 1.8584s1.8162-0.88214 1.8162-1.9192c0-0.72593-0.3709-1.4156-0.9649-1.6065 0.3504 0.26486 0.4386 0.7045 0.4386 1.2132 0 0.81397-0.5341 1.3362-1.2616 1.3362s-1.2223-0.5222-1.2223-1.3362c0-0.61048 0.241-1.12 0.7138-1.3438z" fill="#ffff97"/>
     <path d="m1059.2 337.46c-0.8726 0.26938-1.5013 1.0778-1.5013 2.0568 0 1.1975 0.9364 2.165 2.1089 2.165 1.1726 0 2.1089-0.96756 2.1089-2.165 0-0.83822-0.4621-1.5516-1.1438-1.9124 0.4433 0.30582 0.7506 0.81984 0.7506 1.4073 0 0.93987-0.7596 1.6959-1.6799 1.6959-0.9204 0-1.6443-0.75606-1.6443-1.6959 0-0.70491 0.4028-1.2932 1.0009-1.5516z" fill="#efbb33"/>
    </g>
    <g transform="matrix(.98657 -.42468 .39539 .91851 -238.26 440.64)">
     <path d="m1059.3 337.46c-0.8279 0.1449-1.264 0.95002-1.264 1.7978 0 1.037 0.8174 1.8584 1.7442 1.8584s1.8162-0.88214 1.8162-1.9192c0-0.72593-0.3709-1.4156-0.9649-1.6065 0.3504 0.26486 0.4386 0.7045 0.4386 1.2132 0 0.81397-0.5341 1.3362-1.2616 1.3362s-1.2223-0.5222-1.2223-1.3362c0-0.61048 0.241-1.12 0.7138-1.3438z" fill="#ffff97"/>
     <path d="m1059.2 337.46c-0.8726 0.26938-1.5013 1.0778-1.5013 2.0568 0 1.1975 0.9364 2.165 2.1089 2.165 1.1726 0 2.1089-0.96756 2.1089-2.165 0-0.83822-0.4621-1.5516-1.1438-1.9124 0.4433 0.30582 0.7506 0.81984 0.7506 1.4073 0 0.93987-0.7596 1.6959-1.6799 1.6959-0.9204 0-1.6443-0.75606-1.6443-1.6959 0-0.70491 0.4028-1.2932 1.0009-1.5516z" fill="#efbb33"/>
    </g>
    <g transform="matrix(.90438 -.3893 .36245 .84199 -144.63 430.97)">
     <path d="m1059.3 337.46c-0.8279 0.1449-1.264 0.95002-1.264 1.7978 0 1.037 0.8174 1.8584 1.7442 1.8584s1.8162-0.88214 1.8162-1.9192c0-0.72593-0.3709-1.4156-0.9649-1.6065 0.3504 0.26486 0.4386 0.7045 0.4386 1.2132 0 0.81397-0.5341 1.3362-1.2616 1.3362s-1.2223-0.5222-1.2223-1.3362c0-0.61048 0.241-1.12 0.7138-1.3438z" fill="#ffff97"/>
     <path d="m1059.2 337.46c-0.8726 0.26938-1.5013 1.0778-1.5013 2.0568 0 1.1975 0.9364 2.165 2.1089 2.165 1.1726 0 2.1089-0.96756 2.1089-2.165 0-0.83822-0.4621-1.5516-1.1438-1.9124 0.4433 0.30582 0.7506 0.81984 0.7506 1.4073 0 0.93987-0.7596 1.6959-1.6799 1.6959-0.9204 0-1.6443-0.75606-1.6443-1.6959 0-0.70491 0.4028-1.2932 1.0009-1.5516z" fill="#efbb33"/>
    </g>
    <g transform="matrix(.90438 -.3893 .36245 .84199 -141.75 436.57)">
     <path d="m1059.3 337.46c-0.8279 0.1449-1.264 0.95002-1.264 1.7978 0 1.037 0.8174 1.8584 1.7442 1.8584s1.8162-0.88214 1.8162-1.9192c0-0.72593-0.3709-1.4156-0.9649-1.6065 0.3504 0.26486 0.4386 0.7045 0.4386 1.2132 0 0.81397-0.5341 1.3362-1.2616 1.3362s-1.2223-0.5222-1.2223-1.3362c0-0.61048 0.241-1.12 0.7138-1.3438z" fill="#ffff97"/>
     <path d="m1059.2 337.46c-0.8726 0.26938-1.5013 1.0778-1.5013 2.0568 0 1.1975 0.9364 2.165 2.1089 2.165 1.1726 0 2.1089-0.96756 2.1089-2.165 0-0.83822-0.4621-1.5516-1.1438-1.9124 0.4433 0.30582 0.7506 0.81984 0.7506 1.4073 0 0.93987-0.7596 1.6959-1.6799 1.6959-0.9204 0-1.6443-0.75606-1.6443-1.6959 0-0.70491 0.4028-1.2932 1.0009-1.5516z" fill="#efbb33"/>
    </g>
    <g transform="matrix(.84916 -.49838 .464 .79059 -113.12 567.36)">
     <path d="m1059.3 337.46c-0.8279 0.1449-1.264 0.95002-1.264 1.7978 0 1.037 0.8174 1.8584 1.7442 1.8584s1.8162-0.88214 1.8162-1.9192c0-0.72593-0.3709-1.4156-0.9649-1.6065 0.3504 0.26486 0.4386 0.7045 0.4386 1.2132 0 0.81397-0.5341 1.3362-1.2616 1.3362s-1.2223-0.5222-1.2223-1.3362c0-0.61048 0.241-1.12 0.7138-1.3438z" fill="#ffff97"/>
     <path d="m1059.2 337.46c-0.8726 0.26938-1.5013 1.0778-1.5013 2.0568 0 1.1975 0.9364 2.165 2.1089 2.165 1.1726 0 2.1089-0.96756 2.1089-2.165 0-0.83822-0.4621-1.5516-1.1438-1.9124 0.4433 0.30582 0.7506 0.81984 0.7506 1.4073 0 0.93987-0.7596 1.6959-1.6799 1.6959-0.9204 0-1.6443-0.75606-1.6443-1.6959 0-0.70491 0.4028-1.2932 1.0009-1.5516z" fill="#efbb33"/>
    </g>
    <g transform="matrix(.84916 -.49838 .464 .79059 -108.62 564.96)">
     <path d="m1059.3 337.46c-0.8279 0.1449-1.264 0.95002-1.264 1.7978 0 1.037 0.8174 1.8584 1.7442 1.8584s1.8162-0.88214 1.8162-1.9192c0-0.72593-0.3709-1.4156-0.9649-1.6065 0.3504 0.26486 0.4386 0.7045 0.4386 1.2132 0 0.81397-0.5341 1.3362-1.2616 1.3362s-1.2223-0.5222-1.2223-1.3362c0-0.61048 0.241-1.12 0.7138-1.3438z" fill="#ffff97"/>
     <path d="m1059.2 337.46c-0.8726 0.26938-1.5013 1.0778-1.5013 2.0568 0 1.1975 0.9364 2.165 2.1089 2.165 1.1726 0 2.1089-0.96756 2.1089-2.165 0-0.83822-0.4621-1.5516-1.1438-1.9124 0.4433 0.30582 0.7506 0.81984 0.7506 1.4073 0 0.93987-0.7596 1.6959-1.6799 1.6959-0.9204 0-1.6443-0.75606-1.6443-1.6959 0-0.70491 0.4028-1.2932 1.0009-1.5516z" fill="#efbb33"/>
    </g>
    <g transform="matrix(.50613 -.84456 .7863 .47122 141.01 1048.8)">
     <path d="m1059.3 337.46c-0.8279 0.1449-1.264 0.95002-1.264 1.7978 0 1.037 0.8174 1.8584 1.7442 1.8584s1.8162-0.88214 1.8162-1.9192c0-0.72593-0.3709-1.4156-0.9649-1.6065 0.3504 0.26486 0.4386 0.7045 0.4386 1.2132 0 0.81397-0.5341 1.3362-1.2616 1.3362s-1.2223-0.5222-1.2223-1.3362c0-0.61048 0.241-1.12 0.7138-1.3438z" fill="#ffff97"/>
     <path d="m1059.2 337.46c-0.8726 0.26938-1.5013 1.0778-1.5013 2.0568 0 1.1975 0.9364 2.165 2.1089 2.165 1.1726 0 2.1089-0.96756 2.1089-2.165 0-0.83822-0.4621-1.5516-1.1438-1.9124 0.4433 0.30582 0.7506 0.81984 0.7506 1.4073 0 0.93987-0.7596 1.6959-1.6799 1.6959-0.9204 0-1.6443-0.75606-1.6443-1.6959 0-0.70491 0.4028-1.2932 1.0009-1.5516z" fill="#efbb33"/>
    </g>
    <g transform="matrix(.50613 -.84456 .7863 .47122 145.48 1045.9)">
     <path d="m1059.3 337.46c-0.8279 0.1449-1.264 0.95002-1.264 1.7978 0 1.037 0.8174 1.8584 1.7442 1.8584s1.8162-0.88214 1.8162-1.9192c0-0.72593-0.3709-1.4156-0.9649-1.6065 0.3504 0.26486 0.4386 0.7045 0.4386 1.2132 0 0.81397-0.5341 1.3362-1.2616 1.3362s-1.2223-0.5222-1.2223-1.3362c0-0.61048 0.241-1.12 0.7138-1.3438z" fill="#ffff97"/>
     <path d="m1059.2 337.46c-0.8726 0.26938-1.5013 1.0778-1.5013 2.0568 0 1.1975 0.9364 2.165 2.1089 2.165 1.1726 0 2.1089-0.96756 2.1089-2.165 0-0.83822-0.4621-1.5516-1.1438-1.9124 0.4433 0.30582 0.7506 0.81984 0.7506 1.4073 0 0.93987-0.7596 1.6959-1.6799 1.6959-0.9204 0-1.6443-0.75606-1.6443-1.6959 0-0.70491 0.4028-1.2932 1.0009-1.5516z" fill="#efbb33"/>
    </g>
    <g transform="matrix(.50613 -.84456 .7863 .47122 150.26 1043.2)">
     <path d="m1059.3 337.46c-0.8279 0.1449-1.264 0.95002-1.264 1.7978 0 1.037 0.8174 1.8584 1.7442 1.8584s1.8162-0.88214 1.8162-1.9192c0-0.72593-0.3709-1.4156-0.9649-1.6065 0.3504 0.26486 0.4386 0.7045 0.4386 1.2132 0 0.81397-0.5341 1.3362-1.2616 1.3362s-1.2223-0.5222-1.2223-1.3362c0-0.61048 0.241-1.12 0.7138-1.3438z" fill="#ffff97"/>
     <path d="m1059.2 337.46c-0.8726 0.26938-1.5013 1.0778-1.5013 2.0568 0 1.1975 0.9364 2.165 2.1089 2.165 1.1726 0 2.1089-0.96756 2.1089-2.165 0-0.83822-0.4621-1.5516-1.1438-1.9124 0.4433 0.30582 0.7506 0.81984 0.7506 1.4073 0 0.93987-0.7596 1.6959-1.6799 1.6959-0.9204 0-1.6443-0.75606-1.6443-1.6959 0-0.70491 0.4028-1.2932 1.0009-1.5516z" fill="#efbb33"/>
    </g>
    <g transform="matrix(-.048056 -.98344 .9156 -.044741 692.68 1372.5)">
     <path d="m1059.3 337.46c-0.8279 0.1449-1.264 0.95002-1.264 1.7978 0 1.037 0.8174 1.8584 1.7442 1.8584s1.8162-0.88214 1.8162-1.9192c0-0.72593-0.3709-1.4156-0.9649-1.6065 0.3504 0.26486 0.4386 0.7045 0.4386 1.2132 0 0.81397-0.5341 1.3362-1.2616 1.3362s-1.2223-0.5222-1.2223-1.3362c0-0.61048 0.241-1.12 0.7138-1.3438z" fill="#ffff97"/>
     <path d="m1059.2 337.46c-0.8726 0.26938-1.5013 1.0778-1.5013 2.0568 0 1.1975 0.9364 2.165 2.1089 2.165 1.1726 0 2.1089-0.96756 2.1089-2.165 0-0.83822-0.4621-1.5516-1.1438-1.9124 0.4433 0.30582 0.7506 0.81984 0.7506 1.4073 0 0.93987-0.7596 1.6959-1.6799 1.6959-0.9204 0-1.6443-0.75606-1.6443-1.6959 0-0.70491 0.4028-1.2932 1.0009-1.5516z" fill="#efbb33"/>
    </g>
    <g transform="matrix(-.048056 -.98344 .9156 -.044741 697.96 1371.9)">
     <path d="m1059.3 337.46c-0.8279 0.1449-1.264 0.95002-1.264 1.7978 0 1.037 0.8174 1.8584 1.7442 1.8584s1.8162-0.88214 1.8162-1.9192c0-0.72593-0.3709-1.4156-0.9649-1.6065 0.3504 0.26486 0.4386 0.7045 0.4386 1.2132 0 0.81397-0.5341 1.3362-1.2616 1.3362s-1.2223-0.5222-1.2223-1.3362c0-0.61048 0.241-1.12 0.7138-1.3438z" fill="#ffff97"/>
     <path d="m1059.2 337.46c-0.8726 0.26938-1.5013 1.0778-1.5013 2.0568 0 1.1975 0.9364 2.165 2.1089 2.165 1.1726 0 2.1089-0.96756 2.1089-2.165 0-0.83822-0.4621-1.5516-1.1438-1.9124 0.4433 0.30582 0.7506 0.81984 0.7506 1.4073 0 0.93987-0.7596 1.6959-1.6799 1.6959-0.9204 0-1.6443-0.75606-1.6443-1.6959 0-0.70491 0.4028-1.2932 1.0009-1.5516z" fill="#efbb33"/>
    </g>
    <g transform="matrix(-.048056 -.98344 .9156 -.044741 699.56 1366.5)">
     <path d="m1059.3 337.46c-0.8279 0.1449-1.264 0.95002-1.264 1.7978 0 1.037 0.8174 1.8584 1.7442 1.8584s1.8162-0.88214 1.8162-1.9192c0-0.72593-0.3709-1.4156-0.9649-1.6065 0.3504 0.26486 0.4386 0.7045 0.4386 1.2132 0 0.81397-0.5341 1.3362-1.2616 1.3362s-1.2223-0.5222-1.2223-1.3362c0-0.61048 0.241-1.12 0.7138-1.3438z" fill="#ffff97"/>
     <path d="m1059.2 337.46c-0.8726 0.26938-1.5013 1.0778-1.5013 2.0568 0 1.1975 0.9364 2.165 2.1089 2.165 1.1726 0 2.1089-0.96756 2.1089-2.165 0-0.83822-0.4621-1.5516-1.1438-1.9124 0.4433 0.30582 0.7506 0.81984 0.7506 1.4073 0 0.93987-0.7596 1.6959-1.6799 1.6959-0.9204 0-1.6443-0.75606-1.6443-1.6959 0-0.70491 0.4028-1.2932 1.0009-1.5516z" fill="#efbb33"/>
    </g>
    <g transform="matrix(-.048056 -.98344 .9156 -.044741 704.62 1369.6)">
     <path d="m1059.3 337.46c-0.8279 0.1449-1.264 0.95002-1.264 1.7978 0 1.037 0.8174 1.8584 1.7442 1.8584s1.8162-0.88214 1.8162-1.9192c0-0.72593-0.3709-1.4156-0.9649-1.6065 0.3504 0.26486 0.4386 0.7045 0.4386 1.2132 0 0.81397-0.5341 1.3362-1.2616 1.3362s-1.2223-0.5222-1.2223-1.3362c0-0.61048 0.241-1.12 0.7138-1.3438z" fill="#ffff97"/>
     <path d="m1059.2 337.46c-0.8726 0.26938-1.5013 1.0778-1.5013 2.0568 0 1.1975 0.9364 2.165 2.1089 2.165 1.1726 0 2.1089-0.96756 2.1089-2.165 0-0.83822-0.4621-1.5516-1.1438-1.9124 0.4433 0.30582 0.7506 0.81984 0.7506 1.4073 0 0.93987-0.7596 1.6959-1.6799 1.6959-0.9204 0-1.6443-0.75606-1.6443-1.6959 0-0.70491 0.4028-1.2932 1.0009-1.5516z" fill="#efbb33"/>
    </g>
    <g transform="matrix(-.21309 -.80882 .75302 -.19839 936.95 1232.4)">
     <path d="m1059.3 337.46c-0.8279 0.1449-1.264 0.95002-1.264 1.7978 0 1.037 0.8174 1.8584 1.7442 1.8584s1.8162-0.88214 1.8162-1.9192c0-0.72593-0.3709-1.4156-0.9649-1.6065 0.3504 0.26486 0.4386 0.7045 0.4386 1.2132 0 0.81397-0.5341 1.3362-1.2616 1.3362s-1.2223-0.5222-1.2223-1.3362c0-0.61048 0.241-1.12 0.7138-1.3438z" fill="#ffff97"/>
     <path d="m1059.2 337.46c-0.8726 0.26938-1.5013 1.0778-1.5013 2.0568 0 1.1975 0.9364 2.165 2.1089 2.165 1.1726 0 2.1089-0.96756 2.1089-2.165 0-0.83822-0.4621-1.5516-1.1438-1.9124 0.4433 0.30582 0.7506 0.81984 0.7506 1.4073 0 0.93987-0.7596 1.6959-1.6799 1.6959-0.9204 0-1.6443-0.75606-1.6443-1.6959 0-0.70491 0.4028-1.2932 1.0009-1.5516z" fill="#efbb33"/>
    </g>
    <g transform="matrix(-.47493 -.6885 .64101 -.44217 1257.4 1187.1)">
     <path d="m1059.3 337.46c-0.8279 0.1449-1.264 0.95002-1.264 1.7978 0 1.037 0.8174 1.8584 1.7442 1.8584s1.8162-0.88214 1.8162-1.9192c0-0.72593-0.3709-1.4156-0.9649-1.6065 0.3504 0.26486 0.4386 0.7045 0.4386 1.2132 0 0.81397-0.5341 1.3362-1.2616 1.3362s-1.2223-0.5222-1.2223-1.3362c0-0.61048 0.241-1.12 0.7138-1.3438z" fill="#ffff97"/>
     <path d="m1059.2 337.46c-0.8726 0.26938-1.5013 1.0778-1.5013 2.0568 0 1.1975 0.9364 2.165 2.1089 2.165 1.1726 0 2.1089-0.96756 2.1089-2.165 0-0.83822-0.4621-1.5516-1.1438-1.9124 0.4433 0.30582 0.7506 0.81984 0.7506 1.4073 0 0.93987-0.7596 1.6959-1.6799 1.6959-0.9204 0-1.6443-0.75606-1.6443-1.6959 0-0.70491 0.4028-1.2932 1.0009-1.5516z" fill="#efbb33"/>
    </g>
   </g>
   <g transform="translate(291.1 -309.44)">
    <path transform="translate(16.263 325.27)" d="m715.5-29.446 10.253 0.44194 0.17678-3.0936h-1.0607l-1.0607 1.5026-6.1872-0.08839-1.7678-1.8562-1.0607-0.08839z" fill="#f6d251"/>
    <path d="m735.92 294.92-0.0884-22.989 1.6794-2.2716 0.53033 25.272z" fill="url(#linearGradient5995-2)"/>
    <g fill="none" stroke="#e7ad46">
     <path transform="translate(-284.38 -23.604)" d="m1018.5 321.54c2.0582 0.505 2.6642 0.59534 3.607 0.27557" stroke-width=".35"/>
     <path transform="translate(16.263 325.27)" d="m723.19-28.739c0.54264 0.29619 0.86068 0.99102 0.35355 1.7678-0.76162-0.06804-1.4902-0.36522-2.2904 0.0054" stroke-width=".375"/>
    </g>
    <g transform="translate(-.21875 2.5156)" fill="none" stroke="#e7ad46">
     <path transform="translate(-284.38 -23.604)" d="m1018.5 321.54c2.0582 0.505 2.6642 0.59534 3.607 0.27557" stroke-width=".35"/>
     <path transform="translate(16.263 325.27)" d="m723.19-28.739c0.54264 0.29619 0.86068 0.99102 0.35355 1.7678-0.76162-0.06804-1.4902-0.36522-2.2904 0.0054" stroke-width=".375"/>
    </g>
    <g transform="translate(-.32812 4.8594)" fill="none" stroke="#e7ad46">
     <path transform="translate(-284.38 -23.604)" d="m1018.5 321.54c2.0582 0.505 2.6642 0.59534 3.607 0.27557" stroke-width=".35"/>
     <path transform="translate(16.263 325.27)" d="m723.19-28.739c0.54264 0.29619 0.86068 0.99102 0.35355 1.7678-0.76162-0.06804-1.4902-0.36522-2.2904 0.0054" stroke-width=".375"/>
    </g>
   </g>
   <g transform="translate(327.75 -382.56)" fill="none" stroke="#e7ad46">
    <path d="m717.44 345.28c1.1087-0.76221 1.9537-0.82104 2.5625-0.25 1.1279 0.3451 2.0591-0.13764 2.6875-0.875 1.0202-1.4508 3.0125-1.4693 4.9375-0.25l0.5625 0.09375" stroke-width=".4"/>
    <path d="m725.12 347.81c1.2546 1.5417 1.5255 3.4583-0.125 5.1875" stroke-width=".5"/>
    <path d="m728.69 340.19c0.0468 0.42397-0.18825 0.58557 0.6875 0.84375 1.7986-0.375 3.3663 0.40851 4 1.5312 0.42523 0.38473 0.80321 0.48591 1.0625-0.125" stroke-width=".4"/>
    <path d="m729.06 341c-0.33123 2.6748 3.8828 2.4217 4.6875 1.9375" stroke-width=".4"/>
    <g stroke-width=".3">
     <path d="m729.44 354.81c-0.13015-2.1638-0.39515-4.4501 1.25-5"/>
     <path d="m731.38 353.44c-0.13015-2.1638-0.39515-4.4501 1.25-5"/>
     <path d="m733.06 352.38c-0.13015-2.1638-0.39515-4.4501 1.25-5"/>
     <path d="m734.5 350.88c-0.13015-2.1638-0.39515-4.4501 1.25-5"/>
    </g>
    <path d="m739.88 340.44c4.5721-0.1859 4.5412 4.8965 1.7188 5.7812-1.9531-0.0227-2.5158 1.8236-3.9375 1.6875" stroke-width=".4"/>
    <path d="m738.75 340.62c-0.57811 0.47017-0.28818 0.86142 0.0312 1.25 3.9727 1.1167 2.0504 3.478 0.875 3.4062-0.68383-0.17914-1.0657 0.0444-1.25 0.53125-7e-3 0.68689-0.37884 0.90578-0.96875 0.84375" stroke-width=".3"/>
   </g>
  </g>
  <g fill="#f4d32c">
   <path transform="matrix(1.3673 .1655 -.1655 1.3673 -980.16 342.1)" d="m431.27-181.99-4.886-2.1076-4.1477 3.3333 0.49458-5.2981-4.4519-2.9147 5.1917-1.1668 1.3963-5.1347 2.714 4.577 5.3149-0.25874-3.5143 3.9956z"/>
   <path transform="matrix(1.3023 -.44808 .44808 1.3023 -780.21 690.26)" d="m431.27-181.99-4.886-2.1076-4.1477 3.3333 0.49458-5.2981-4.4519-2.9147 5.1917-1.1668 1.3963-5.1347 2.714 4.577 5.3149-0.25874-3.5143 3.9956z"/>
   <path transform="matrix(-1.3023 -.44808 -.44808 1.3023 47.133 690.26)" d="m431.27-181.99-4.886-2.1076-4.1477 3.3333 0.49458-5.2981-4.4519-2.9147 5.1917-1.1668 1.3963-5.1347 2.714 4.577 5.3149-0.25874-3.5143 3.9956z"/>
  </g>
  <g fill="#f6d251">
   <path transform="matrix(2.2739 .27363 -.27363 2.2739 -1384.4 746.58)" d="m431.27-181.99-4.886-2.1076-4.1477 3.3333 0.49458-5.2981-4.4519-2.9147 5.1917-1.1668 1.3963-5.1347 2.714 4.577 5.3149-0.25874-3.5143 3.9956z"/>
   <path transform="matrix(2.1376 .82235 -.82235 2.1376 -1484.6 480.36)" d="m431.27-181.99-4.886-2.1076-4.1477 3.3333 0.49458-5.2981-4.4519-2.9147 5.1917-1.1668 1.3963-5.1347 2.714 4.577 5.3149-0.25874-3.5143 3.9956z"/>
   <path transform="matrix(-2.1376 .82235 .82235 2.1376 755.45 480.48)" d="m431.27-181.99-4.886-2.1076-4.1477 3.3333 0.49458-5.2981-4.4519-2.9147 5.1917-1.1668 1.3963-5.1347 2.714 4.577 5.3149-0.25874-3.5143 3.9956z"/>
  </g>
  <g fill-rule="evenodd">
   <path transform="translate(-325.68 335.19)" d="m-204.85 14.431c-1.1956-1.6847-2.3911-3.3695-3.6011-5.0597 1.6201-1.3496 2.5339-2.792 2.8147-4.2584 0.28442-1.4407-0.0674-3.0285-1.0339-4.7064-1.0146-1.7612-2.1523-2.8963-3.4437-3.3599-1.254-0.45744-2.3826-0.40413-3.3884 0.1752-0.64208 0.3704-1.0752 0.86914-1.3299 1.5017-0.21981 0.65404-0.22794 1.5193-0.0197 2.6623 0.14399 0.77757 0.62456 2.4716 1.3536 5.1052 0.96603 3.3575 1.2768 5.9683 0.88424 7.7489-0.56078 2.5438-1.8687 4.4352-4.0238 5.6767-1.3945 0.80323-2.9217 1.1417-4.572 1.0513-1.6672-0.08058-3.215-0.7158-4.7182-1.8208-1.4888-1.0994-2.8171-2.7216-4.0297-4.8267-1.969-3.4183-2.7514-6.4375-2.2146-9.0229 0.52832-2.5806 1.9633-4.6424 4.4253-6.1716 1.147 1.796 2.2797 3.5863 3.4147 5.3614-1.2564 1.043-1.9705 2.1482-2.1552 3.254-0.17273 1.1266 0.21582 2.485 1.0983 4.017 0.93045 1.6154 1.9804 2.6761 3.1619 3.203 0.74675 0.31935 1.4786 0.30028 2.1801-0.10379 0.65099-0.37448 1.0211-0.96295 1.1798-1.7622 0.19295-1.0133-0.1915-3.0681-1.092-6.1164-0.89448-3.0379-1.4277-5.4095-1.4755-7.0753-0.0454-1.6811 0.26222-3.2184 1.0288-4.6038 0.76055-1.3958 1.9872-2.5881 3.7113-3.5813 1.5635-0.90068 3.2693-1.3003 5.1283-1.2191 1.8614 0.065907 3.5875 0.73718 5.1447 1.936 1.591 1.1793 3.0648 2.9953 4.4275 5.361 1.981 3.4391 2.7438 6.5806 2.1801 9.3342-0.54435 2.7286-2.1828 5.1991-5.0357 7.3005"/>
   <path transform="translate(-325.68 335.19)" d="m-223.95-44.413c0.90694 2.1236 1.8093 4.2361 2.7162 6.3597-1.8343 1.7643-3.6454 3.5579-5.484 5.337 1.6439 3.849 3.2925 7.7091 4.9364 11.558 2.5376-0.14221 5.0668-0.25465 7.5908-0.4041 0.8834 2.0683 1.7667 4.1366 2.6454 6.1938-11.215 0.43507-22.467 0.63702-33.687 1.061-0.87867-2.0572-1.762-4.1255-2.6406-6.1827 8.022-7.9119 15.9-16.011 23.922-23.923zm-6.8219 15.638c-3.0214 2.8336-5.9919 5.737-9.0133 8.5707 4.1221-0.25656 8.264-0.41699 12.391-0.6625-1.129-2.6434-2.2533-5.2758-3.3775-7.9082z"/>
   <path transform="translate(-325.68 335.19)" d="m-240.7-58.877c-1.7339 0.27524-3.4774 0.55191-5.221 0.82867-0.71646-4.5137-1.4329-9.0274-2.1475-13.529 4.1228-0.65436 8.236-1.3073 12.349-1.9602 1.4866 1.0914 2.8825 2.8547 4.2572 5.1694 1.3785 2.3385 2.2521 4.7936 2.6593 7.3593 0.51468 3.2427 0.31406 6.2094-0.69996 8.8423-0.98889 2.6046-2.6194 4.7753-4.974 6.3668-2.3352 1.5884-4.9807 2.6537-7.9668 3.1277-3.227 0.51224-6.1876 0.27585-8.9226-0.65391-2.7368-0.94164-4.9569-2.6716-6.7261-5.0455-1.3552-1.8185-2.2443-4.2468-2.7137-7.2045-0.61468-3.8723-0.31328-7.0132 0.96963-9.4453 1.3078-2.3995 3.276-4.1854 6.0426-5.2334 0.72489 2.016 1.4286 4.0232 2.1554 6.051-1.4618 0.6826-2.5262 1.6918-3.2335 3.0218-0.68427 1.3507-0.88417 2.9533-0.59758 4.7588 0.43359 2.732 1.6513 4.8037 3.6456 6.1068 2 1.3387 4.7039 1.7619 8.1139 1.2207 3.6701-0.58259 6.27-1.872 7.865-3.7691 1.6027-1.9105 2.1709-4.2414 1.7524-6.8783-0.20923-1.3185-0.67089-2.6091-1.4119-3.8553-0.72756-1.224-1.4962-2.2711-2.3983-3.1021-1.3197 0.20944-2.6298 0.41736-3.9398 0.62539 0.38086 2.3994 0.76173 4.7988 1.1426 7.1982"/>
   <path transform="translate(-325.68 335.19)" d="m-233.61-80.702c-10.41 1.0795-20.819 2.159-31.229 3.2386-0.21957-2.1174-0.43791-4.2228-0.65634-6.3283 10.41-1.0795 20.819-2.159 31.229-3.2386 0.21833 2.1054 0.43667 4.2109 0.65634 6.3283"/>
   <path transform="translate(-325.68 335.19)" d="m-244.98-91.292c-0.1771-2.0582-0.35409-4.1285-0.54105-6.1748 2.0806-0.35468 3.5992-1.1232 4.5844-2.2452 0.97543-1.1221 1.4765-2.6572 1.4933-4.5814 0.0179-2.0445-0.38797-3.5996-1.2662-4.6656-0.84944-1.0177-1.8494-1.5556-3.01-1.5658-0.74123-6e-3 -1.3673 0.20455-1.9075 0.63282-0.52079 0.44047-0.96629 1.1943-1.366 2.2853-0.26995 0.75536-0.71389 2.4473-1.4196 5.0752-0.86859 3.4082-1.9233 5.7924-3.1642 7.1527-1.7721 1.8848-3.8581 2.8529-6.3452 2.8312-1.6092-0.014-3.0975-0.48408-4.4745-1.3982-1.3966-0.91425-2.409-2.2581-3.1451-3.9604-0.72652-1.6902-1.0497-3.7737-1.0285-6.2031 0.0344-3.9447 0.8897-6.944 2.6625-8.901 1.7631-1.9691 4.0447-2.9956 6.9423-3.0785 0.079 2.1175 0.14824 4.2469 0.22729 6.3644-1.6116 0.25054-2.7872 0.84164-3.5067 1.7013-0.71985 0.89576-1.0731 2.2518-1.0886 4.0317-0.0161 1.84 0.35159 3.2986 1.1033 4.3395 0.48188 0.66571 1.1225 1.0201 1.932 1.0272 0.75099 7e-3 1.3683-0.3128 1.9101-0.93349 0.67967-0.76381 1.3894-2.7301 2.1576-5.8144 0.76823-3.0843 1.5101-5.3871 2.3129-6.8474 0.81267-1.4723 1.8568-2.6418 3.2197-3.4598 1.3628-0.80596 3.0246-1.2244 5.0142-1.2071 1.8043 0.0158 3.4772 0.55956 5.0388 1.5594 1.5713 1.012 2.7194 2.4533 3.4545 4.2758 0.77404 1.8349 1.1245 4.1472 1.1007 6.8652-0.0346 3.9687-0.96877 7.0636-2.85 9.152-1.852 2.0886-4.5162 3.3763-8.0405 3.7424"/>
   <path transform="translate(-325.68 335.19)" d="m-231.63-151.07c-0.31314 2.2757-0.62781 4.5633-0.94094 6.839-2.4822 0.58115-4.9596 1.1994-7.4482 1.7554-0.57377 4.1701-1.1442 8.3164-1.7163 12.475 2.2509 1.1716 4.4775 2.3764 6.7204 3.5347-0.30813 2.24-0.61473 4.468-0.91959 6.6841-9.8412-5.3966-19.592-11.024-29.433-16.42 0.3065-2.2281 0.60983-4.4322 0.91633-6.6603 10.949-2.6576 21.873-5.5616 32.821-8.2073zm-13.894 9.8888c-4.0503 0.88743-8.0896 1.8371-12.14 2.7245 3.6668 1.9006 7.3027 3.882 10.968 5.7945 0.39015-2.8357 0.78029-5.6714 1.1721-8.519z"/>
   <path transform="translate(-325.68 335.19)" d="m-237.73-171.37c-1.6844-0.49503-3.378-0.99293-5.0718-1.4907 1.2887-4.3847 2.5775-8.7695 3.8663-13.154 4.005 1.1772 8.0007 2.3515 11.996 3.5259 0.86809 1.6466 1.3795 3.8152 1.6251 6.5073 0.24225 2.7037-0.025 5.3078-0.75415 7.7886-0.92589 3.1501-2.3795 5.7439-4.4214 7.676-2.0172 1.9518-4.4178 3.2018-7.2274 3.6296-2.7908 0.43329-5.6409 0.27254-8.5417-0.58007-3.1348-0.92134-5.7011-2.4278-7.773-4.4407-2.0718-2.0129-3.3353-4.5279-3.912-7.4427-0.44764-2.2125-0.21266-4.7759 0.6386-7.6721 1.0988-3.7386 2.7216-6.4582 4.9203-8.0934 2.2174-1.6298 4.7545-2.3758 7.7066-2.1474-0.20984 2.132-0.4384 4.2586-0.64485 6.3791-1.6133-0.0104-3.0111 0.4563-4.2239 1.3659-1.1941 0.91514-2.062 2.2771-2.5741 4.0195-0.78346 2.6654-0.57204 5.0592 0.66722 7.1032 1.2325 2.0671 3.4969 3.5976 6.8095 4.5712 3.5652 1.0479 6.467 0.99818 8.7214-0.0315 2.2638-1.0269 3.7802-2.9003 4.5365-5.4735 0.37301-1.2693 0.50622-2.6216 0.37478-4.0767-0.13224-1.4178-0.37748-2.6933-0.83944-3.8194-1.282-0.37683-2.5546-0.75089-3.8272-1.1249-0.68168 2.3193-1.3667 4.6502-2.0518 6.981"/>
   <path transform="translate(-325.68 335.19)" d="m-208.89-209.49c-8.5712-6.0049-17.142-12.01-25.714-18.015 1.187-1.6942 2.367-3.3786 3.5539-5.0728 8.1587 0.5761 16.385 0.92055 24.565 1.4827-5.7274-4.0126-11.447-8.0196-17.174-12.032 1.1248-1.6056 2.2566-3.221 3.3883-4.8364 8.5712 6.0049 17.142 12.01 25.714 18.015-1.2214 1.7435-2.4429 3.4869-3.6644 5.2304-8.0033-0.52608-16.044-0.82878-24.055-1.3605 5.5996 3.923 11.191 7.8405 16.775 11.752-1.1317 1.6154-2.2566 3.221-3.3883 4.8364"/>
   <path transform="translate(-325.68 335.19)" d="m-189.11-254.32c-1.2598-1.2227-2.5266-2.4523-3.7934-3.6818 3.183-3.2795 6.3577-6.5504 9.5408-9.8299 2.9955 2.9074 5.984 5.808 8.9725 8.7086 0.0178 1.8442-0.5567 4.0185-1.5851 6.5065-1.0452 2.5052-2.4864 4.6763-4.2957 6.5405-2.2951 2.3647-4.7814 3.974-7.4882 4.7324-2.6943 0.78735-5.4007 0.77508-8.0861-0.15523-2.6713-0.91673-5.1183-2.3867-7.288-4.4925-2.3446-2.2756-3.9137-4.8042-4.8092-7.5505-0.89554-2.7463-0.84193-5.5604-3e-3 -8.3996 0.65136-2.1835 2.0451-4.3337 4.1392-6.4913 2.7224-2.8049 5.4336-4.464 8.1409-4.8867 2.7046-0.39188 5.3138 0.11266 7.8197 1.69-1.1789 1.7888-2.3802 3.5727-3.5591 5.3615-1.4144-0.76938-2.8602-1.0162-4.3655-0.76773-1.4745 0.24488-2.8854 1.0543-4.1586 2.3661-1.9266 1.985-2.8547 4.2016-2.7103 6.5876 0.12759 2.4032 1.4183 4.8124 3.8959 7.2172 2.6666 2.5881 5.249 3.9046 7.7319 4.0351 2.49 0.13738 4.6961-0.80531 6.5641-2.7299 0.92978-0.95796 1.6776-2.0925 2.2308-3.4327 0.54347-1.3162 0.92068-2.559 1.0365-3.7707-0.95884-0.93063-1.9107-1.8545-2.8625-2.7783-1.692 1.7433-3.3757 3.478-5.0677 5.2213"/>
   <path transform="translate(-325.68 335.19)" d="m-145.96-274.22c-5.4152-8.9554-10.83-17.911-16.245-26.866 2.9126-1.7612 5.8251-3.5223 8.7273-5.2772 3.3139-2.0038 5.5303-3.1731 6.7054-3.5075 1.7961-0.51616 3.6126-0.44062 5.4646 0.27457 1.8568 0.74646 3.4367 2.1505 4.7337 4.2955 0.99422 1.6442 1.5436 3.2268 1.6076 4.704 0.0844 1.4877-0.15231 2.8162-0.67968 4.0127-0.5326 1.2111-1.217 2.2176-2.048 3.005-1.1403 1.0428-2.9377 2.3006-5.4077 3.7942-1.1835 0.71566-2.3671 1.4313-3.5506 2.147 2.0439 3.3802 4.0828 6.752 6.1268 10.132-1.8113 1.0953-3.6227 2.1905-5.434 3.2858zm-8.061-25.603c1.5342 2.5372 3.0735 5.0828 4.6077 7.62 0.99829-0.60364 1.9863-1.2011 2.9846-1.8047 2.1407-1.2944 3.4957-2.3075 4.0496-3.0186 0.53853-0.71316 0.85244-1.4957 0.90599-2.3601 0.038-0.84364-0.18533-1.6546-0.66477-2.4475-0.58543-0.96815-1.3684-1.5889-2.3127-1.8955-0.95969-0.30872-1.9278-0.23623-2.9189 0.12369-0.71378 0.26064-2.0614 1.0071-4.0271 2.1958-0.87479 0.52896-1.7496 1.0579-2.6244 1.5869z"/>
   <path transform="translate(-325.68 335.19)" d="m-96.511-296.91c-2.153 0.83468-4.3061 1.6694-6.4479 2.4997-1.7012-1.8929-3.4438-3.7592-5.1374-5.6655-3.9136 1.5172-7.8384 3.0388-11.741 4.5516 0.0788 2.5323 0.0832 5.0725 0.1585 7.5958-2.0858 0.8086-4.1939 1.6259-6.2909 2.4388-0.0446-11.228 0.1339-22.48 0.0893-33.708 2.0858-0.8086 4.1715-1.6172 6.2684-2.4301 7.6362 8.2848 15.464 16.432 23.101 24.717zm-15.399-7.3466c-2.7411-3.1111-5.5312-6.1824-8.2611-9.2978 0.10589 4.1328 0.13745 8.2734 0.25455 12.402 2.6576-1.0303 5.3377-2.0693 8.0066-3.104z"/>
   <path transform="translate(-325.68 335.19)" d="m-91.974-298.6c-2.1365-10.245-4.2731-20.49-6.4096-30.735 2.025-0.42231 4.0383-0.84218 6.0634-1.2645 5.5642 6.0031 11.313 11.888 16.891 17.898-1.4277-6.8459-2.8534-13.682-4.2811-20.528 1.9309-0.40268 3.85-0.8029 5.7808-1.2056 2.1365 10.245 4.2731 20.49 6.4096 30.735-2.0839 0.4346-4.1678 0.86918-6.24 1.3013-5.4735-5.8627-11.139-11.586-16.614-17.458 1.3958 6.6931 2.7897 13.377 4.1815 20.051-1.9191 0.40021-3.85 0.8029-5.7808 1.2056"/>
   <path transform="translate(-325.68 335.19)" d="m-47.356-317.01v-5.2863h13.687v12.504c-1.323 1.2874-3.2713 2.3993-5.7729 3.3942-2.5257 0.99484-5.0994 1.463-7.6972 1.463-3.2713 0-6.1578-0.66323-8.6113-2.0677-2.4294-1.385-4.3056-3.3356-5.5083-5.9105-1.2027-2.5554-1.8521-5.3448-1.8521-8.3684 0-3.2576 0.69756-6.1446 2.0686-8.7 1.347-2.5554 3.3916-4.4866 6.0375-5.852 1.9965-1.0729 4.5221-1.5605 7.5288-1.5605 3.9208 0 6.9756 0.79977 9.1645 2.4383 2.1648 1.6581 3.6321 3.9014 4.2335 6.7883-2.0927 0.40964-4.2094 0.78027-6.3021 1.1899-0.43297-1.5605-1.2749-2.77-2.5016-3.6673-1.2027-0.89731-2.7662-1.346-4.5943-1.346-2.7662 0-5.0032 0.87781-6.6148 2.6529-1.6356 1.7556-2.4775 4.3695-2.4775 7.8222 0 3.7063 0.86594 6.4762 2.5016 8.3489 1.6357 1.8922 3.8486 2.809 6.5426 2.809 1.323 0 2.6459-0.25358 3.9929-0.78027 1.323-0.52668 2.4775-1.1314 3.4397-1.8922v-3.9794h-7.2642"/>
   <path transform="translate(-325.68 335.19)" d="m-23.342-337.07c2.1028 0.24248 4.2056 0.48497 6.3084 0.72745-0.65026 5.6391-1.3005 11.278-1.9486 16.898-0.30837 2.6742-0.41387 4.4293-0.36214 5.2403 0.11536 1.3093 0.66823 2.3941 1.6064 3.2877 0.8881 0.90748 2.2316 1.4355 3.9998 1.6394 1.7922 0.20665 3.1944 0.0149 4.1896-0.63613 0.99294-0.63168 1.6431-1.4403 1.9572-2.4841 0.31407-1.0438 0.613-2.7962 0.89679-5.2572 0.66367-5.7554 1.3273-11.511 1.991-17.266 2.0789 0.23972 4.1817 0.4822 6.3084 0.72744-0.63015 5.4647-1.2603 10.929-1.8905 16.394-0.43127 3.74-0.92634 6.3534-1.4397 7.8651-0.5133 1.5117-1.2843 2.7384-2.3152 3.6995-1.0332 0.98049-2.3935 1.6483-3.9943 2.0921-1.6053 0.48252-3.6483 0.56111-6.1334 0.27454-2.963-0.34168-5.1951-0.93289-6.6417-1.8262-1.475-0.85734-2.6148-1.892-3.3715-3.0986-0.75676-1.2065-1.2484-2.4021-1.3705-3.6532-0.20064-1.8296-0.11179-4.4899 0.29044-7.978 0.64132-5.5616 1.2782-11.084 1.9195-16.646"/>
   <path transform="translate(-325.68 335.19)" d="m3.9625-301.14c2.8871-9.9679 5.7797-19.954 8.6614-29.904 2.0563 0.59557 4.0894 1.1845 6.1226 1.7734-2.3933 8.2628-4.792 16.544-7.1853 24.807 5.0598 1.4656 10.12 2.9311 15.179 4.3966-0.49385 1.705-0.9877 3.4101-1.4761 5.0964-7.093-2.0544-14.186-4.1089-21.302-6.17"/>
   <path transform="translate(-325.68 335.19)" d="m35.063-307.77c1.1919-2.9688 2.6637-5.2787 4.3409-6.9385 1.2729-1.2336 2.7337-2.1606 4.3518-2.8983 1.5885-0.72854 3.2024-1.0685 4.819-1.0921 2.1055-0.0795 4.3938 0.41877 6.7376 1.3598 4.3081 1.7297 7.2671 4.4311 8.7512 8.159 1.4467 3.6918 1.3107 7.9043-0.59351 12.647-1.8969 4.7247-4.6524 7.8434-8.2728 9.5009-3.6203 1.6574-7.6035 1.5717-11.889-0.149-4.3528-1.7476-7.3117-4.449-8.7657-8.1228-1.4691-3.7008-1.3397-7.8319 0.52083-12.466zm6.1738 2.2475c-1.3228 3.2946-1.5668 6.0974-0.73206 8.4084 0.82745 2.3291 2.4575 3.9505 4.8012 4.8915 2.3661 0.94997 4.6425 0.89697 6.8212-0.20419 2.1564-1.1101 3.9479-3.3127 5.307-6.6978 1.3373-3.3308 1.5668-6.0974 0.80681-8.3364-0.8046-2.2569-2.4419-3.8602-4.875-4.837-2.4108-0.9679-4.7317-0.93281-6.8736 0.1411-2.1491 1.092-3.9038 3.2673-5.2556 6.6343z"/>
   <path transform="translate(-325.68 335.19)" d="m80.892-263.36c7.1348-7.6696 14.256-15.325 21.391-22.995 1.5146 1.409 3.0116 2.8016 4.5262 4.2105-1.6835 8.0251-3.1596 16.11-4.8431 24.135 4.7565-5.1131 9.513-10.226 14.283-15.353 1.4265 1.3271 2.8707 2.6705 4.3148 4.014-7.1348 7.6696-14.256 15.325-21.391 22.995-1.5498-1.4418-3.1173-2.8999-4.6671-4.3416 1.63-7.8617 3.0394-15.769 4.6518-23.647-4.6502 4.9988-9.3005 9.9976-13.951 14.996-1.4441-1.3434-2.8707-2.6705-4.3148-4.014"/>
   <path transform="translate(-325.68 335.19)" d="m122.45-238.38c1.3933-1.0681 2.8021-2.1481 4.1954-3.2162 2.7806 3.627 5.5611 7.2541 8.3417 10.881-3.3129 2.5398-6.6104 5.0676-9.9234 7.6074-1.8266-0.26664-3.8944-1.1364-6.206-2.5165-2.3261-1.3992-4.2636-3.1569-5.8295-5.1995-2.0049-2.6153-3.2493-5.3286-3.6128-8.1112-0.37893-2.7707 0.0277-5.4465 1.3395-7.9676 1.2963-2.5092 3.1149-4.7218 5.5145-6.5613 2.5853-1.982 5.3156-3.1657 8.1631-3.6514s5.6387-0.0189 8.3176 1.2311c2.0661 0.9317 3.9898 2.6394 5.8191 5.0256 2.3708 3.0925 3.6093 6.0226 3.6406 8.7567 1e-3 2.7269-0.88641 5.2561-2.8117 7.4899-1.5983-1.4116-3.1803-2.866-4.7786-4.2776 0.96042-1.3121 1.4227-2.697 1.3884-4.2165-0.0196-1.5004-0.61478-3.0142-1.727-4.465-1.683-2.1953-3.7406-3.4366-6.1299-3.6356-2.3884-0.22997-4.9751 0.69221-7.7152 2.7928-2.9414 2.2549-4.6129 4.6274-5.1039 7.0648-0.50652 2.4493 0.11225 4.7634 1.7367 6.8823 0.81953 1.069 1.8257 1.9647 3.0632 2.7132 1.2375 0.74858 2.4199 1.297 3.5944 1.5786 1.0527-0.80703 2.1054-1.614 3.1581-2.4211-1.4781-1.9281-2.9562-3.8561-4.4342-5.7842"/>
   <path transform="translate(-325.68 335.19)" d="m136.27-192.45c9.7952-3.7125 19.572-7.4182 29.367-11.131 1.2021 3.1714 2.4126 6.3654 3.6146 9.5368 1.3726 3.6213 2.1132 6.0158 2.2391 7.2285 0.18336 1.8598-0.21955 3.6588-1.2526 5.3365-1.0695 1.6915-2.7534 2.9728-5.0881 3.8578-1.8058 0.68441-3.4574 0.95028-4.9085 0.75428-1.4961-0.20466-2.76-0.67737-3.8283-1.4043-1.095-0.74254-1.9614-1.5974-2.5992-2.5647-0.81068-1.3133-1.7324-3.3048-2.7554-6.0039-0.48588-1.2821-0.98038-2.5866-1.4663-3.8687-3.6846 1.3965-7.3692 2.7931-11.072 4.1964-0.75017-1.9794-1.5004-3.9586-2.2506-5.938zm26.656-3.3122c-2.7908 1.0577-5.5634 2.1086-8.3359 3.1594 0.40949 1.0795 0.81842 2.1593 1.2362 3.2614 0.88657 2.3392 1.6293 3.8584 2.2377 4.5281 0.59993 0.64721 1.3129 1.0972 2.1486 1.3207 0.81864 0.17846 1.67 0.11302 2.5273-0.21191 1.0579-0.40109 1.8056-1.0702 2.2868-1.9471 0.4812-0.87693 0.57559-1.8388 0.40967-2.882-0.1366-0.74567-0.60924-2.2128-1.4191-4.3496-0.36689-0.96704-0.72461-1.9119-1.0912-2.879z"/>
   <path transform="translate(-325.68 335.19)" d="m146.85-165.11c10.135-2.6493 20.25-5.2937 30.385-7.9431 0.52926 2.0246 1.0647 4.0725 1.6 6.1204-10.135 2.6493-20.25 5.2938-30.385 7.9431-0.53533-2.0479-1.0708-4.0958-1.6-6.1204"/>
   <path transform="translate(-325.68 335.19)" d="m150.1-152.89c10.255-1.5903 20.529-3.1836 30.765-4.7709 0.32802 2.1155 0.65246 4.2072 0.9768 6.299-8.5009 1.3182-17.021 2.6395-25.522 3.9578 0.80723 5.2056 1.6146 10.411 2.4218 15.617-1.7542 0.27204-3.5083 0.54407-5.2432 0.81307-1.1317-7.2973-2.2633-14.595-3.3986-21.916"/>
   <path transform="translate(-325.68 335.19)" d="m153.23-126.47c10.455-0.64261 20.891-1.2841 31.347-1.9268 0.12983 2.1127 0.25975 4.2255 0.38959 6.3382-10.455 0.64271-20.891 1.2841-31.347 1.9268-0.12983-2.1127-0.25975-4.2255-0.38959-6.3382"/>
   <path transform="translate(-325.68 335.19)" d="m154.3-113.45c10.475 0.0845 20.93 0.16875 31.405 0.25321-0.0274 3.3915-0.0549 6.807-0.0822 10.198-0.0312 3.8725-0.20744 6.3728-0.52923 7.5729-0.50201 1.776-1.5287 3.3072-3.0989 4.4973-1.6092 1.1898-3.6429 1.7988-6.1396 1.7786-1.9311-0.0156-3.5667-0.38957-4.8485-1.0975-1.3208-0.70823-2.3277-1.6304-3.0604-2.6947-0.75201-1.0885-1.2502-2.1991-1.4949-3.3075-0.28018-1.5418-0.41858-3.7318-0.39531-6.6182 0.0111-1.371 0.0221-2.742 0.0334-4.1371-3.9402-0.0318-7.8805-0.0635-11.84-0.0955 0.0171-2.1167 0.0341-4.2333 0.0512-6.35zm26.048 6.5604c-2.9844-0.0241-5.9494-0.048-8.9143-0.0719-9e-3 1.1545-0.0188 2.3331-0.0281 3.4877-0.0204 2.5256 0.1223 4.1865 0.44712 5.031 0.32482 0.84452 0.82655 1.5221 1.5249 2.0088 0.69853 0.46268 1.5158 0.7098 2.4326 0.71719 1.1314 9e-3 2.0704-0.32007 2.8365-0.98742 0.76597-0.6433 1.2021-1.5057 1.425-2.5383 0.14255-0.74454 0.23279-2.2592 0.25141-4.5683 8e-3 -1.0102 0.0165-2.0445 0.0248-3.0788z"/>
   <path transform="translate(-325.68 335.19)" d="m152.78-84.441c10.41 1.1688 20.8 2.3353 31.21 3.504-0.2362 2.1035-0.4723 4.207-0.70851 6.3105-10.41-1.1688-20.8-2.3353-31.21-3.504 0.2362-2.1035 0.4723-4.207 0.70851-6.3106"/>
   <path transform="translate(-325.68 335.19)" d="m151.53-72.595c10.078 2.8555 20.138 5.7056 30.216 8.561-0.56391 1.9903-1.1278 3.9806-1.6851 5.9477-7.9105 2.1589-15.78 4.5295-23.69 6.6884 6.719 1.9036 13.438 3.8073 20.176 5.7162-0.53767 1.8977-1.0753 3.7954-1.613 5.6932-10.078-2.8555-20.138-5.7056-30.216-8.561 0.5836-2.0597 1.1605-4.0963 1.7376-6.1329 7.7472-2.1551 15.428-4.5041 23.168-6.6361-6.5688-1.8611-13.138-3.7222-19.706-5.5833 0.53767-1.8977 1.0753-3.7954 1.613-5.6931"/>
   <path transform="translate(-325.68 335.19)" d="m130.6-14.778c0.95832-2.1009 1.8967-4.1581 2.8551-6.259 2.5446 0.15607 5.1091 0.26833 7.6536 0.42439 1.737-3.8079 3.474-7.6158 5.2109-11.424-1.8058-1.7755-3.6116-3.551-5.4175-5.3265 0.93834-2.0572 1.8568-4.0705 2.7951-6.1277 7.891 7.9882 15.611 16.163 23.502 24.151-0.93834 2.0572-1.8768 4.1143-2.7951 6.1276-11.265-0.59127-22.559-0.93134-33.804-1.5664zm16.139-5.4871c4.1285 0.34982 8.2814 0.55213 12.41 0.90196-2.9705-2.8884-5.8656-5.8482-8.8561-8.6928-1.178 2.5824-2.3559 5.1647-3.5538 7.7909z"/>
   <path transform="translate(-325.68 335.19)" d="m137.24-8.3693c-0.92332 1.8614-1.8466 3.7228-2.7446 5.5433-1.9605-0.76149-3.6594-0.9082-5.0965-0.44014-1.4118 0.42715-2.6203 1.4894-3.6335 3.1254-1.0892 1.7587-1.5348 3.2934-1.3624 4.6451 0.19777 1.3108 0.78152 2.2948 1.7766 2.911 0.63017 0.3903 1.2875 0.51443 1.9545 0.47482 0.68448-0.14196 1.4546-0.5704 2.3435-1.2648 0.63744-0.51061 1.8888-1.7161 3.8458-3.6164 2.5281-2.452 4.6569-3.9628 6.4275-4.4507 2.5057-0.71164 4.7702-0.44095 6.893 0.87368 1.3599 0.84219 2.3923 1.9908 3.1051 3.5074 0.7128 1.5166 0.89127 3.1549 0.60961 5.0176-0.25633 1.8218-1.047 3.7653-2.3134 5.8103-2.077 3.3538-4.3693 5.4991-6.9003 6.2516-2.5311 0.75253-5.012 0.46093-7.5171-0.97731 1.015-1.8612 2.0631-3.7019 3.0781-5.5631 1.5197 0.65823 2.844 0.74277 3.897 0.37632 1.0783-0.40736 2.086-1.3677 3.0232-2.881 0.96247-1.5542 1.3907-2.9866 1.3178-4.2766-0.0766-0.83963-0.42995-1.4546-1.1265-1.8859-0.63018-0.3903-1.3382-0.43264-2.1318-0.18852-0.96913 0.30519-2.6047 1.6123-4.8559 3.8396-2.2513 2.2273-4.0641 3.8207-5.5458 4.6572-1.4486 0.85707-2.952 1.284-4.5103 1.2809-1.5915-0.02365-3.2457-0.53882-4.9372-1.5864-1.5257-0.94492-2.6733-2.2781-3.4935-3.9177-0.82797-1.7011-1.03-3.5238-0.73081-5.4887 0.27382-1.9241 1.1911-4.0721 2.6349-6.4034 2.077-3.3537 4.4862-5.5398 7.1928-6.3534 2.6481-0.79326 5.6127-0.54164 8.8004 0.97986"/>
  </g>
  <g fill="#f6d251">
   <path transform="matrix(1.2512 .24309 -.24309 1.2512 107.24 76.591)" d="m-364.87 57.036-2.8546-1.0611-2.2728 2.027 0.12709-3.0428-2.6302-1.5352 2.9331-0.8194 0.6473-2.9758 1.6857 2.5364 3.0302-0.30398-1.8913 2.387z"/>
   <path transform="matrix(1.2409 .29109 -.29109 1.2409 119.44 95.301)" d="m-364.87 57.036-2.8546-1.0611-2.2728 2.027 0.12709-3.0428-2.6302-1.5352 2.9331-0.8194 0.6473-2.9758 1.6857 2.5364 3.0302-0.30398-1.8913 2.387z"/>
   <path transform="matrix(1.1978 .4356 -.4356 1.1978 125.26 152.37)" d="m-364.87 57.036-2.8546-1.0611-2.2728 2.027 0.12709-3.0428-2.6302-1.5352 2.9331-0.8194 0.6473-2.9758 1.6857 2.5364 3.0302-0.30398-1.8913 2.387z"/>
   <path transform="matrix(1.1791 .48406 -.48406 1.1791 134.41 173.98)" d="m-364.87 57.036-2.8546-1.0611-2.2728 2.027 0.12709-3.0428-2.6302-1.5352 2.9331-0.8194 0.6473-2.9758 1.6857 2.5364 3.0302-0.30398-1.8913 2.387z"/>
   <path transform="matrix(1.1376 .57479 -.57479 1.1376 137.14 213.41)" d="m-364.87 57.036-2.8546-1.0611-2.2728 2.027 0.12709-3.0428-2.6302-1.5352 2.9331-0.8194 0.6473-2.9758 1.6857 2.5364 3.0302-0.30398-1.8913 2.387z"/>
   <path transform="matrix(1.0761 .68302 -.68302 1.0761 132.75 261.13)" d="m-364.87 57.036-2.8546-1.0611-2.2728 2.027 0.12709-3.0428-2.6302-1.5352 2.9331-0.8194 0.6473-2.9758 1.6857 2.5364 3.0302-0.30398-1.8913 2.387z"/>
   <path transform="matrix(1.0178 .76721 -.76721 1.0178 128.76 301.04)" d="m-364.87 57.036-2.8546-1.0611-2.2728 2.027 0.12709-3.0428-2.6302-1.5352 2.9331-0.8194 0.6473-2.9758 1.6857 2.5364 3.0302-0.30398-1.8913 2.387z"/>
   <path transform="matrix(.96228 .83582 -.83582 .96228 123.3 335.76)" d="m-364.87 57.036-2.8546-1.0611-2.2728 2.027 0.12709-3.0428-2.6302-1.5352 2.9331-0.8194 0.6473-2.9758 1.6857 2.5364 3.0302-0.30398-1.8913 2.387z"/>
   <path transform="matrix(.90544 .89709 -.89709 .90544 117.57 369.48)" d="m-364.87 57.036-2.8546-1.0611-2.2728 2.027 0.12709-3.0428-2.6302-1.5352 2.9331-0.8194 0.6473-2.9758 1.6857 2.5364 3.0302-0.30398-1.8913 2.387z"/>
   <path transform="matrix(.84531 .95396 -.95396 .84531 108.85 401.58)" d="m-364.87 57.036-2.8546-1.0611-2.2728 2.027 0.12709-3.0428-2.6302-1.5352 2.9331-0.8194 0.6473-2.9758 1.6857 2.5364 3.0302-0.30398-1.8913 2.387z"/>
   <path transform="matrix(.71249 1.0569 -1.0569 .71249 75.677 455.93)" d="m-364.87 57.036-2.8546-1.0611-2.2728 2.027 0.12709-3.0428-2.6302-1.5352 2.9331-0.8194 0.6473-2.9758 1.6857 2.5364 3.0302-0.30398-1.8913 2.387z"/>
   <path transform="matrix(.58405 1.1329 -1.1329 .58405 41.633 501.37)" d="m-364.87 57.036-2.8546-1.0611-2.2728 2.027 0.12709-3.0428-2.6302-1.5352 2.9331-0.8194 0.6473-2.9758 1.6857 2.5364 3.0302-0.30398-1.8913 2.387z"/>
   <path transform="matrix(.58529 1.1323 -1.1323 .58529 50.5 511.58)" d="m-364.87 57.036-2.8546-1.0611-2.2728 2.027 0.12709-3.0428-2.6302-1.5352 2.9331-0.8194 0.6473-2.9758 1.6857 2.5364 3.0302-0.30398-1.8913 2.387z"/>
   <path transform="matrix(.37857 1.2171 -1.2171 .37857 -13.866 565.59)" d="m-364.87 57.036-2.8546-1.0611-2.2728 2.027 0.12709-3.0428-2.6302-1.5352 2.9331-0.8194 0.6473-2.9758 1.6857 2.5364 3.0302-0.30398-1.8913 2.387z"/>
   <path transform="matrix(.37857 1.2171 -1.2171 .37857 -7.0607 577.82)" d="m-364.87 57.036-2.8546-1.0611-2.2728 2.027 0.12709-3.0428-2.6302-1.5352 2.9331-0.8194 0.6473-2.9758 1.6857 2.5364 3.0302-0.30398-1.8913 2.387z"/>
   <path transform="matrix(.29875 1.2391 -1.2391 .29875 -30 602.46)" d="m-364.87 57.036-2.8546-1.0611-2.2728 2.027 0.12709-3.0428-2.6302-1.5352 2.9331-0.8194 0.6473-2.9758 1.6857 2.5364 3.0302-0.30398-1.8913 2.387z"/>
   <path transform="matrix(.29875 1.2391 -1.2391 .29875 -25.349 615.04)" d="m-364.87 57.036-2.8546-1.0611-2.2728 2.027 0.12709-3.0428-2.6302-1.5352 2.9331-0.8194 0.6473-2.9758 1.6857 2.5364 3.0302-0.30398-1.8913 2.387z"/>
   <path transform="matrix(.12952 1.268 -1.268 .12952 -82.549 648.17)" d="m-364.87 57.036-2.8546-1.0611-2.2728 2.027 0.12709-3.0428-2.6302-1.5352 2.9331-0.8194 0.6473-2.9758 1.6857 2.5364 3.0302-0.30398-1.8913 2.387z"/>
   <path transform="matrix(.017527 1.2745 -1.2745 .017527 -121.18 669.96)" d="m-364.87 57.036-2.8546-1.0611-2.2728 2.027 0.12709-3.0428-2.6302-1.5352 2.9331-0.8194 0.6473-2.9758 1.6857 2.5364 3.0302-0.30398-1.8913 2.387z"/>
   <path transform="matrix(.017527 1.2745 -1.2745 .017527 -119.81 683.48)" d="m-364.87 57.036-2.8546-1.0611-2.2728 2.027 0.12709-3.0428-2.6302-1.5352 2.9331-0.8194 0.6473-2.9758 1.6857 2.5364 3.0302-0.30398-1.8913 2.387z"/>
   <path transform="matrix(-.18921 1.2605 -1.2605 -.18921 -196.23 703.01)" d="m-364.87 57.036-2.8546-1.0611-2.2728 2.027 0.12709-3.0428-2.6302-1.5352 2.9331-0.8194 0.6473-2.9758 1.6857 2.5364 3.0302-0.30398-1.8913 2.387z"/>
   <path transform="matrix(-.33665 1.2293 -1.2293 -.33665 -253.22 713.12)" d="m-364.87 57.036-2.8546-1.0611-2.2728 2.027 0.12709-3.0428-2.6302-1.5352 2.9331-0.8194 0.6473-2.9758 1.6857 2.5364 3.0302-0.30398-1.8913 2.387z"/>
   <path transform="matrix(-.52734 1.1604 -1.1604 -.52734 -329.11 711.74)" d="m-364.87 57.036-2.8546-1.0611-2.2728 2.027 0.12709-3.0428-2.6302-1.5352 2.9331-0.8194 0.6473-2.9758 1.6857 2.5364 3.0302-0.30398-1.8913 2.387z"/>
   <path transform="matrix(-.52734 1.1604 -1.1604 -.52734 -331.7 725.17)" d="m-364.87 57.036-2.8546-1.0611-2.2728 2.027 0.12709-3.0428-2.6302-1.5352 2.9331-0.8194 0.6473-2.9758 1.6857 2.5364 3.0302-0.30398-1.8913 2.387z"/>
   <path transform="matrix(-.66065 1.09 -1.09 -.66065 -388.62 719.56)" d="m-364.87 57.036-2.8546-1.0611-2.2728 2.027 0.12709-3.0428-2.6302-1.5352 2.9331-0.8194 0.6473-2.9758 1.6857 2.5364 3.0302-0.30398-1.8913 2.387z"/>
   <path transform="matrix(-.77088 1.015 -1.015 -.77088 -438.5 710.49)" d="m-364.87 57.036-2.8546-1.0611-2.2728 2.027 0.12709-3.0428-2.6302-1.5352 2.9331-0.8194 0.6473-2.9758 1.6857 2.5364 3.0302-0.30398-1.8913 2.387z"/>
   <path transform="matrix(-.77088 1.015 -1.015 -.77088 -444.1 722.38)" d="m-364.87 57.036-2.8546-1.0611-2.2728 2.027 0.12709-3.0428-2.6302-1.5352 2.9331-0.8194 0.6473-2.9758 1.6857 2.5364 3.0302-0.30398-1.8913 2.387z"/>
   <path transform="matrix(-.78497 1.0042 -1.0042 -.78497 -457.11 731.12)" d="m-364.87 57.036-2.8546-1.0611-2.2728 2.027 0.12709-3.0428-2.6302-1.5352 2.9331-0.8194 0.6473-2.9758 1.6857 2.5364 3.0302-0.30398-1.8913 2.387z"/>
   <path transform="matrix(-.94377 .85667 -.85667 -.94377 -531.02 696.33)" d="m-364.87 57.036-2.8546-1.0611-2.2728 2.027 0.12709-3.0428-2.6302-1.5352 2.9331-0.8194 0.6473-2.9758 1.6857 2.5364 3.0302-0.30398-1.8913 2.387z"/>
   <path transform="matrix(-.93351 .86784 -.86784 -.93351 -535.34 710.31)" d="m-364.87 57.036-2.8546-1.0611-2.2728 2.027 0.12709-3.0428-2.6302-1.5352 2.9331-0.8194 0.6473-2.9758 1.6857 2.5364 3.0302-0.30398-1.8913 2.387z"/>
   <path transform="matrix(-1.0519 .7198 -.7198 -1.0519 -596.73 672.29)" d="m-364.87 57.036-2.8546-1.0611-2.2728 2.027 0.12709-3.0428-2.6302-1.5352 2.9331-0.8194 0.6473-2.9758 1.6857 2.5364 3.0302-0.30398-1.8913 2.387z"/>
   <path transform="matrix(-1.1368 .57645 -.57645 -1.1368 -645.8 632.89)" d="m-364.87 57.036-2.8546-1.0611-2.2728 2.027 0.12709-3.0428-2.6302-1.5352 2.9331-0.8194 0.6473-2.9758 1.6857 2.5364 3.0302-0.30398-1.8913 2.387z"/>
   <path transform="matrix(-1.1612 .52551 -.52551 -1.1612 -668.31 623.47)" d="m-364.87 57.036-2.8546-1.0611-2.2728 2.027 0.12709-3.0428-2.6302-1.5352 2.9331-0.8194 0.6473-2.9758 1.6857 2.5364 3.0302-0.30398-1.8913 2.387z"/>
   <path transform="matrix(-1.2153 .38427 -.38427 -1.2153 -707.3 581.81)" d="m-364.87 57.036-2.8546-1.0611-2.2728 2.027 0.12709-3.0428-2.6302-1.5352 2.9331-0.8194 0.6473-2.9758 1.6857 2.5364 3.0302-0.30398-1.8913 2.387z"/>
   <path transform="matrix(-1.2379 .30378 -.30378 -1.2379 -731.93 559.77)" d="m-364.87 57.036-2.8546-1.0611-2.2728 2.027 0.12709-3.0428-2.6302-1.5352 2.9331-0.8194 0.6473-2.9758 1.6857 2.5364 3.0302-0.30398-1.8913 2.387z"/>
   <path transform="matrix(-1.2633 .1693 -.1693 -1.2633 -760.78 517.16)" d="m-364.87 57.036-2.8546-1.0611-2.2728 2.027 0.12709-3.0428-2.6302-1.5352 2.9331-0.8194 0.6473-2.9758 1.6857 2.5364 3.0302-0.30398-1.8913 2.387z"/>
   <path transform="matrix(-1.2745 .01207 -.01207 -1.2745 -786.85 464.45)" d="m-364.87 57.036-2.8546-1.0611-2.2728 2.027 0.12709-3.0428-2.6302-1.5352 2.9331-0.8194 0.6473-2.9758 1.6857 2.5364 3.0302-0.30398-1.8913 2.387z"/>
   <path transform="matrix(-1.2745 .01207 -.01207 -1.2745 -799.77 467.38)" d="m-364.87 57.036-2.8546-1.0611-2.2728 2.027 0.12709-3.0428-2.6302-1.5352 2.9331-0.8194 0.6473-2.9758 1.6857 2.5364 3.0302-0.30398-1.8913 2.387z"/>
   <path transform="matrix(-1.2622 -.17724 .17724 -1.2622 -818.72 399.27)" d="m-364.87 57.036-2.8546-1.0611-2.2728 2.027 0.12709-3.0428-2.6302-1.5352 2.9331-0.8194 0.6473-2.9758 1.6857 2.5364 3.0302-0.30398-1.8913 2.387z"/>
   <path transform="matrix(-1.2622 -.17724 .17724 -1.2622 -832.24 400.91)" d="m-364.87 57.036-2.8546-1.0611-2.2728 2.027 0.12709-3.0428-2.6302-1.5352 2.9331-0.8194 0.6473-2.9758 1.6857 2.5364 3.0302-0.30398-1.8913 2.387z"/>
   <g transform="matrix(-1 0 0 1 -732.91 0)">
    <path transform="matrix(1.2512 .24309 -.24309 1.2512 107.24 76.591)" d="m-364.87 57.036-2.8546-1.0611-2.2728 2.027 0.12709-3.0428-2.6302-1.5352 2.9331-0.8194 0.6473-2.9758 1.6857 2.5364 3.0302-0.30398-1.8913 2.387z"/>
    <path transform="matrix(1.2409 .29109 -.29109 1.2409 119.44 95.301)" d="m-364.87 57.036-2.8546-1.0611-2.2728 2.027 0.12709-3.0428-2.6302-1.5352 2.9331-0.8194 0.6473-2.9758 1.6857 2.5364 3.0302-0.30398-1.8913 2.387z"/>
    <path transform="matrix(1.1978 .4356 -.4356 1.1978 125.26 152.37)" d="m-364.87 57.036-2.8546-1.0611-2.2728 2.027 0.12709-3.0428-2.6302-1.5352 2.9331-0.8194 0.6473-2.9758 1.6857 2.5364 3.0302-0.30398-1.8913 2.387z"/>
    <path transform="matrix(1.1791 .48406 -.48406 1.1791 134.41 173.98)" d="m-364.87 57.036-2.8546-1.0611-2.2728 2.027 0.12709-3.0428-2.6302-1.5352 2.9331-0.8194 0.6473-2.9758 1.6857 2.5364 3.0302-0.30398-1.8913 2.387z"/>
    <path transform="matrix(1.1376 .57479 -.57479 1.1376 137.14 213.41)" d="m-364.87 57.036-2.8546-1.0611-2.2728 2.027 0.12709-3.0428-2.6302-1.5352 2.9331-0.8194 0.6473-2.9758 1.6857 2.5364 3.0302-0.30398-1.8913 2.387z"/>
    <path transform="matrix(1.0761 .68302 -.68302 1.0761 132.75 261.13)" d="m-364.87 57.036-2.8546-1.0611-2.2728 2.027 0.12709-3.0428-2.6302-1.5352 2.9331-0.8194 0.6473-2.9758 1.6857 2.5364 3.0302-0.30398-1.8913 2.387z"/>
    <path transform="matrix(1.0178 .76721 -.76721 1.0178 128.76 301.04)" d="m-364.87 57.036-2.8546-1.0611-2.2728 2.027 0.12709-3.0428-2.6302-1.5352 2.9331-0.8194 0.6473-2.9758 1.6857 2.5364 3.0302-0.30398-1.8913 2.387z"/>
    <path transform="matrix(.96228 .83582 -.83582 .96228 123.3 335.76)" d="m-364.87 57.036-2.8546-1.0611-2.2728 2.027 0.12709-3.0428-2.6302-1.5352 2.9331-0.8194 0.6473-2.9758 1.6857 2.5364 3.0302-0.30398-1.8913 2.387z"/>
    <path transform="matrix(.90544 .89709 -.89709 .90544 117.57 369.48)" d="m-364.87 57.036-2.8546-1.0611-2.2728 2.027 0.12709-3.0428-2.6302-1.5352 2.9331-0.8194 0.6473-2.9758 1.6857 2.5364 3.0302-0.30398-1.8913 2.387z"/>
    <path transform="matrix(.84531 .95396 -.95396 .84531 108.85 401.58)" d="m-364.87 57.036-2.8546-1.0611-2.2728 2.027 0.12709-3.0428-2.6302-1.5352 2.9331-0.8194 0.6473-2.9758 1.6857 2.5364 3.0302-0.30398-1.8913 2.387z"/>
    <path transform="matrix(.71249 1.0569 -1.0569 .71249 75.677 455.93)" d="m-364.87 57.036-2.8546-1.0611-2.2728 2.027 0.12709-3.0428-2.6302-1.5352 2.9331-0.8194 0.6473-2.9758 1.6857 2.5364 3.0302-0.30398-1.8913 2.387z"/>
    <path transform="matrix(.58405 1.1329 -1.1329 .58405 41.633 501.37)" d="m-364.87 57.036-2.8546-1.0611-2.2728 2.027 0.12709-3.0428-2.6302-1.5352 2.9331-0.8194 0.6473-2.9758 1.6857 2.5364 3.0302-0.30398-1.8913 2.387z"/>
    <path transform="matrix(.58529 1.1323 -1.1323 .58529 50.5 511.58)" d="m-364.87 57.036-2.8546-1.0611-2.2728 2.027 0.12709-3.0428-2.6302-1.5352 2.9331-0.8194 0.6473-2.9758 1.6857 2.5364 3.0302-0.30398-1.8913 2.387z"/>
    <path transform="matrix(.37857 1.2171 -1.2171 .37857 -13.866 565.59)" d="m-364.87 57.036-2.8546-1.0611-2.2728 2.027 0.12709-3.0428-2.6302-1.5352 2.9331-0.8194 0.6473-2.9758 1.6857 2.5364 3.0302-0.30398-1.8913 2.387z"/>
    <path transform="matrix(.37857 1.2171 -1.2171 .37857 -7.0607 577.82)" d="m-364.87 57.036-2.8546-1.0611-2.2728 2.027 0.12709-3.0428-2.6302-1.5352 2.9331-0.8194 0.6473-2.9758 1.6857 2.5364 3.0302-0.30398-1.8913 2.387z"/>
    <path transform="matrix(.29875 1.2391 -1.2391 .29875 -30 602.46)" d="m-364.87 57.036-2.8546-1.0611-2.2728 2.027 0.12709-3.0428-2.6302-1.5352 2.9331-0.8194 0.6473-2.9758 1.6857 2.5364 3.0302-0.30398-1.8913 2.387z"/>
    <path transform="matrix(.29875 1.2391 -1.2391 .29875 -25.349 615.04)" d="m-364.87 57.036-2.8546-1.0611-2.2728 2.027 0.12709-3.0428-2.6302-1.5352 2.9331-0.8194 0.6473-2.9758 1.6857 2.5364 3.0302-0.30398-1.8913 2.387z"/>
    <path transform="matrix(.12952 1.268 -1.268 .12952 -82.549 648.17)" d="m-364.87 57.036-2.8546-1.0611-2.2728 2.027 0.12709-3.0428-2.6302-1.5352 2.9331-0.8194 0.6473-2.9758 1.6857 2.5364 3.0302-0.30398-1.8913 2.387z"/>
    <path transform="matrix(.017527 1.2745 -1.2745 .017527 -121.18 669.96)" d="m-364.87 57.036-2.8546-1.0611-2.2728 2.027 0.12709-3.0428-2.6302-1.5352 2.9331-0.8194 0.6473-2.9758 1.6857 2.5364 3.0302-0.30398-1.8913 2.387z"/>
    <path transform="matrix(.017527 1.2745 -1.2745 .017527 -119.81 683.48)" d="m-364.87 57.036-2.8546-1.0611-2.2728 2.027 0.12709-3.0428-2.6302-1.5352 2.9331-0.8194 0.6473-2.9758 1.6857 2.5364 3.0302-0.30398-1.8913 2.387z"/>
    <path transform="matrix(-.18921 1.2605 -1.2605 -.18921 -196.23 703.01)" d="m-364.87 57.036-2.8546-1.0611-2.2728 2.027 0.12709-3.0428-2.6302-1.5352 2.9331-0.8194 0.6473-2.9758 1.6857 2.5364 3.0302-0.30398-1.8913 2.387z"/>
    <path transform="matrix(-.33665 1.2293 -1.2293 -.33665 -253.22 713.12)" d="m-364.87 57.036-2.8546-1.0611-2.2728 2.027 0.12709-3.0428-2.6302-1.5352 2.9331-0.8194 0.6473-2.9758 1.6857 2.5364 3.0302-0.30398-1.8913 2.387z"/>
    <path transform="matrix(-.52734 1.1604 -1.1604 -.52734 -329.11 711.74)" d="m-364.87 57.036-2.8546-1.0611-2.2728 2.027 0.12709-3.0428-2.6302-1.5352 2.9331-0.8194 0.6473-2.9758 1.6857 2.5364 3.0302-0.30398-1.8913 2.387z"/>
    <path transform="matrix(-.52734 1.1604 -1.1604 -.52734 -331.7 725.17)" d="m-364.87 57.036-2.8546-1.0611-2.2728 2.027 0.12709-3.0428-2.6302-1.5352 2.9331-0.8194 0.6473-2.9758 1.6857 2.5364 3.0302-0.30398-1.8913 2.387z"/>
    <path transform="matrix(-.66065 1.09 -1.09 -.66065 -388.62 719.56)" d="m-364.87 57.036-2.8546-1.0611-2.2728 2.027 0.12709-3.0428-2.6302-1.5352 2.9331-0.8194 0.6473-2.9758 1.6857 2.5364 3.0302-0.30398-1.8913 2.387z"/>
    <path transform="matrix(-.77088 1.015 -1.015 -.77088 -438.5 710.49)" d="m-364.87 57.036-2.8546-1.0611-2.2728 2.027 0.12709-3.0428-2.6302-1.5352 2.9331-0.8194 0.6473-2.9758 1.6857 2.5364 3.0302-0.30398-1.8913 2.387z"/>
    <path transform="matrix(-.77088 1.015 -1.015 -.77088 -444.1 722.38)" d="m-364.87 57.036-2.8546-1.0611-2.2728 2.027 0.12709-3.0428-2.6302-1.5352 2.9331-0.8194 0.6473-2.9758 1.6857 2.5364 3.0302-0.30398-1.8913 2.387z"/>
    <path transform="matrix(-.78497 1.0042 -1.0042 -.78497 -457.11 731.12)" d="m-364.87 57.036-2.8546-1.0611-2.2728 2.027 0.12709-3.0428-2.6302-1.5352 2.9331-0.8194 0.6473-2.9758 1.6857 2.5364 3.0302-0.30398-1.8913 2.387z"/>
    <path transform="matrix(-.94377 .85667 -.85667 -.94377 -531.02 696.33)" d="m-364.87 57.036-2.8546-1.0611-2.2728 2.027 0.12709-3.0428-2.6302-1.5352 2.9331-0.8194 0.6473-2.9758 1.6857 2.5364 3.0302-0.30398-1.8913 2.387z"/>
    <path transform="matrix(-.93351 .86784 -.86784 -.93351 -535.34 710.31)" d="m-364.87 57.036-2.8546-1.0611-2.2728 2.027 0.12709-3.0428-2.6302-1.5352 2.9331-0.8194 0.6473-2.9758 1.6857 2.5364 3.0302-0.30398-1.8913 2.387z"/>
    <path transform="matrix(-1.0519 .7198 -.7198 -1.0519 -596.73 672.29)" d="m-364.87 57.036-2.8546-1.0611-2.2728 2.027 0.12709-3.0428-2.6302-1.5352 2.9331-0.8194 0.6473-2.9758 1.6857 2.5364 3.0302-0.30398-1.8913 2.387z"/>
    <path transform="matrix(-1.1368 .57645 -.57645 -1.1368 -645.8 632.89)" d="m-364.87 57.036-2.8546-1.0611-2.2728 2.027 0.12709-3.0428-2.6302-1.5352 2.9331-0.8194 0.6473-2.9758 1.6857 2.5364 3.0302-0.30398-1.8913 2.387z"/>
    <path transform="matrix(-1.1612 .52551 -.52551 -1.1612 -668.31 623.47)" d="m-364.87 57.036-2.8546-1.0611-2.2728 2.027 0.12709-3.0428-2.6302-1.5352 2.9331-0.8194 0.6473-2.9758 1.6857 2.5364 3.0302-0.30398-1.8913 2.387z"/>
    <path transform="matrix(-1.2153 .38427 -.38427 -1.2153 -707.3 581.81)" d="m-364.87 57.036-2.8546-1.0611-2.2728 2.027 0.12709-3.0428-2.6302-1.5352 2.9331-0.8194 0.6473-2.9758 1.6857 2.5364 3.0302-0.30398-1.8913 2.387z"/>
    <path transform="matrix(-1.2379 .30378 -.30378 -1.2379 -731.93 559.77)" d="m-364.87 57.036-2.8546-1.0611-2.2728 2.027 0.12709-3.0428-2.6302-1.5352 2.9331-0.8194 0.6473-2.9758 1.6857 2.5364 3.0302-0.30398-1.8913 2.387z"/>
    <path transform="matrix(-1.2633 .1693 -.1693 -1.2633 -760.78 517.16)" d="m-364.87 57.036-2.8546-1.0611-2.2728 2.027 0.12709-3.0428-2.6302-1.5352 2.9331-0.8194 0.6473-2.9758 1.6857 2.5364 3.0302-0.30398-1.8913 2.387z"/>
    <path transform="matrix(-1.2745 .01207 -.01207 -1.2745 -786.85 464.45)" d="m-364.87 57.036-2.8546-1.0611-2.2728 2.027 0.12709-3.0428-2.6302-1.5352 2.9331-0.8194 0.6473-2.9758 1.6857 2.5364 3.0302-0.30398-1.8913 2.387z"/>
    <path transform="matrix(-1.2745 .01207 -.01207 -1.2745 -799.77 467.38)" d="m-364.87 57.036-2.8546-1.0611-2.2728 2.027 0.12709-3.0428-2.6302-1.5352 2.9331-0.8194 0.6473-2.9758 1.6857 2.5364 3.0302-0.30398-1.8913 2.387z"/>
    <path transform="matrix(-1.2622 -.17724 .17724 -1.2622 -818.72 399.27)" d="m-364.87 57.036-2.8546-1.0611-2.2728 2.027 0.12709-3.0428-2.6302-1.5352 2.9331-0.8194 0.6473-2.9758 1.6857 2.5364 3.0302-0.30398-1.8913 2.387z"/>
    <path transform="matrix(-1.2622 -.17724 .17724 -1.2622 -834.07 400.79)" d="m-364.87 57.036-2.8546-1.0611-2.2728 2.027 0.12709-3.0428-2.6302-1.5352 2.9331-0.8194 0.6473-2.9758 1.6857 2.5364 3.0302-0.30398-1.8913 2.387z"/>
   </g>
  </g>
 </g>
 <path d="m1113.3 1040.4c-4.0078-5.0242-6.2607-5.9043-12.197-9.4503 0 0 0.7988 9.4136 2.4447 12.07 2.3656 3.3648 0.5414 8.6371 3.9172 12.498 2.3111 3.691 2.148 8.5393 4.7384 12.001 4.4213 3.4089 11.736 4.3857 17.343 3.8838-3.4167-2.8398-5.6754-4.5235-6.9926-7.1345-4.2333-3.122-3.3422-8.5006-4.3588-12.99-0.4905-2.6407-4.3479-8.2487-4.8957-10.878z" fill="#f6d251"/>
</svg>
